<?xml version="1.0" encoding="UTF-8" standalone="no"?>
<!-- Created with Inkscape (http://www.inkscape.org/) -->

<svg
   xmlns:dc="http://purl.org/dc/elements/1.1/"
   xmlns:cc="http://creativecommons.org/ns#"
   xmlns:rdf="http://www.w3.org/1999/02/22-rdf-syntax-ns#"
   xmlns:svg="http://www.w3.org/2000/svg"
   xmlns="http://www.w3.org/2000/svg"
   xmlns:sodipodi="http://sodipodi.sourceforge.net/DTD/sodipodi-0.dtd"
   xmlns:inkscape="http://www.inkscape.org/namespaces/inkscape"
   width="72"
   height="72"
   viewBox="0 0 19.05 19.050001"
   version="1.1"
   id="svg8"
   sodipodi:docname="numIcon.svg"
   inkscape:version="0.92.2 (5c3e80d, 2017-08-06)">
  <defs
     id="defs2" />
  <sodipodi:namedview
     id="base"
     pagecolor="#ffffff"
     bordercolor="#666666"
     borderopacity="1.0"
     inkscape:pageopacity="0.0"
     inkscape:pageshadow="2"
     inkscape:zoom="12.041667"
     inkscape:cx="23.888031"
     inkscape:cy="25.414834"
     inkscape:document-units="px"
     inkscape:current-layer="layer1"
     showgrid="true"
     units="px">
    <inkscape:grid
       type="xygrid"
       id="grid815" />
  </sodipodi:namedview>
  <metadata
     id="metadata5">
    <rdf:RDF>
      <cc:Work
         rdf:about="">
        <dc:format>image/svg+xml</dc:format>
        <dc:type
           rdf:resource="http://purl.org/dc/dcmitype/StillImage" />
        <dc:title></dc:title>
      </cc:Work>
    </rdf:RDF>
  </metadata>
  <g
     inkscape:label="Layer 1"
     inkscape:groupmode="layer"
     id="layer1"
     transform="translate(0,-277.94999)">
    <g
       aria-label="0"
       style="font-style:normal;font-variant:normal;font-weight:normal;font-stretch:normal;font-size:22.45463562px;line-height:125%;font-family:'Liberation Sans Narrow';-inkscape-font-specification:'Liberation Sans Narrow';text-align:center;letter-spacing:0px;word-spacing:0px;text-anchor:middle;fill:#000000;fill-opacity:1;stroke:none;stroke-width:0.7017073px;stroke-linecap:butt;stroke-linejoin:miter;stroke-opacity:1"
       id="text4518">
      <path
         d="m 13.910671,287.475 q 0,2.21476 -0.339889,3.73878 -0.328926,1.51306 -0.920991,2.45598 -0.581102,0.93195 -1.392451,1.34859 -0.800385,0.40568 -1.7542681,0.40568 -0.9538834,0 -1.7542684,-0.40568 -0.800385,-0.40567 -1.3814864,-1.33763 -0.5701372,-0.94292 -0.8990625,-2.45597 -0.3179612,-1.52402 -0.3179612,-3.74975 0,-2.33537 0.3179612,-3.85939 0.3289253,-1.53499 0.9100267,-2.44501 0.5811014,-0.91003 1.3924506,-1.27185 0.8223133,-0.37278 1.8090893,-0.37278 0.9209908,0 1.7104118,0.37278 0.800385,0.36182 1.381486,1.27185 0.581102,0.91002 0.910027,2.44501 0.328925,1.52402 0.328925,3.85939 z m -2.532725,0 q 0,-1.63367 -0.09868,-2.69719 -0.09868,-1.07449 -0.317961,-1.69945 -0.219284,-0.63592 -0.570138,-0.8881 -0.339889,-0.25217 -0.8332772,-0.25217 -0.5262805,0 -0.8880984,0.26314 -0.3618178,0.25217 -0.5811014,0.8881 -0.2192835,0.63592 -0.3179611,1.71041 -0.087714,1.06352 -0.087714,2.67526 0,1.5898 0.098678,2.65333 0.098678,1.06352 0.306997,1.71041 0.2192836,0.63592 0.5701372,0.89906 0.3508537,0.26314 0.8661701,0.26314 0.4933877,0 0.8442417,-0.26314 0.350854,-0.26314 0.570137,-0.89906 0.230248,-0.64689 0.328925,-1.71041 0.109642,-1.06353 0.109642,-2.65333 z"
         style="font-style:normal;font-variant:normal;font-weight:bold;font-stretch:condensed;font-size:22.45463562px;font-family:'Liberation Sans Narrow';-inkscape-font-specification:'Liberation Sans Narrow Bold Condensed';text-align:center;letter-spacing:-0.75679153px;word-spacing:0px;writing-mode:lr-tb;text-anchor:middle;stroke-width:0.7017073px"
         id="path852" />
    </g>
  </g>
</svg>
