<?xml version="1.0" encoding="UTF-8" standalone="no"?>
<!-- Created with Inkscape (http://www.inkscape.org/) -->

<svg
   xmlns:dc="http://purl.org/dc/elements/1.1/"
   xmlns:cc="http://creativecommons.org/ns#"
   xmlns:rdf="http://www.w3.org/1999/02/22-rdf-syntax-ns#"
   xmlns:svg="http://www.w3.org/2000/svg"
   xmlns="http://www.w3.org/2000/svg"
   xmlns:sodipodi="http://sodipodi.sourceforge.net/DTD/sodipodi-0.dtd"
   xmlns:inkscape="http://www.inkscape.org/namespaces/inkscape"
   width="72"
   height="72"
   viewBox="0 0 19.05 19.050001"
   version="1.1"
   id="svg8"
   sodipodi:docname="numIcon.svg"
   inkscape:version="0.92.2 (5c3e80d, 2017-08-06)">
  <defs
     id="defs2" />
  <sodipodi:namedview
     id="base"
     pagecolor="#ffffff"
     bordercolor="#666666"
     borderopacity="1.0"
     inkscape:pageopacity="0.0"
     inkscape:pageshadow="2"
     inkscape:zoom="12.041667"
     inkscape:cx="23.888031"
     inkscape:cy="34.960949"
     inkscape:document-units="px"
     inkscape:current-layer="layer1"
     showgrid="true"
     units="px">
    <inkscape:grid
       type="xygrid"
       id="grid815" />
  </sodipodi:namedview>
  <metadata
     id="metadata5">
    <rdf:RDF>
      <cc:Work
         rdf:about="">
        <dc:format>image/svg+xml</dc:format>
        <dc:type
           rdf:resource="http://purl.org/dc/dcmitype/StillImage" />
        <dc:title></dc:title>
      </cc:Work>
    </rdf:RDF>
  </metadata>
  <g
     inkscape:label="Layer 1"
     inkscape:groupmode="layer"
     id="layer1"
     transform="translate(0,-277.94999)">
    <g
       aria-label="35"
       style="font-style:normal;font-variant:normal;font-weight:normal;font-stretch:normal;font-size:22.45463562px;line-height:125%;font-family:'Liberation Sans Narrow';-inkscape-font-specification:'Liberation Sans Narrow';text-align:center;letter-spacing:0px;word-spacing:0px;text-anchor:middle;fill:#000000;fill-opacity:1;stroke:none;stroke-width:0.7017073px;stroke-linecap:butt;stroke-linejoin:miter;stroke-opacity:1"
       id="text4518">
      <path
         d="m 9.2455454,290.91775 q 0,1.05256 -0.2850686,1.8968 -0.2741045,0.83328 -0.8442417,1.42534 -0.5701372,0.59207 -1.4143789,0.91003 -0.8332775,0.307 -1.9516236,0.307 -1.2389521,0 -2.0941579,-0.38375 -0.8442417,-0.38374 -1.3924506,-1.0087 -0.53724468,-0.63592 -0.81134911,-1.43631 -0.27410444,-0.80038 -0.35085369,-1.6227 l 2.5656176,-0.2741 q 0.054821,0.49339 0.1973551,0.91002 0.1534985,0.40568 0.4056746,0.70171 0.2521761,0.29603 0.613994,0.4605 0.3618178,0.1535 0.8552058,0.1535 0.9100267,0 1.4143789,-0.54821 0.5043522,-0.54821 0.5043522,-1.67752 0,-0.69075 -0.2412119,-1.10738 -0.2302478,-0.41664 -0.6030298,-0.63593 -0.3618179,-0.23024 -0.7894208,-0.30699 -0.4166387,-0.0768 -0.7894208,-0.0768 H 3.3468179 v -2.48887 h 0.8332775 q 0.372782,0 0.7674924,-0.0877 0.3947104,-0.0877 0.7017073,-0.31797 0.3179612,-0.23024 0.5153164,-0.63592 0.1973552,-0.41664 0.1973552,-1.05256 0,-0.95388 -0.4385671,-1.49113 -0.4276029,-0.54821 -1.2718446,-0.54821 -0.7784566,0 -1.2608804,0.52628 -0.4824238,0.52629 -0.5482089,1.49113 l -2.53272502,-0.21928 q 0.10964177,-1.08545 0.49338799,-1.88584 0.38374623,-0.80038 0.96484763,-1.32666 0.5811014,-0.52629 1.3266655,-0.77846 0.7565282,-0.26314 1.6007699,-0.26314 1.1183461,0 1.9187311,0.32892 0.8003849,0.32893 1.3157013,0.8881 0.5153163,0.55918 0.7565282,1.30474 0.2412119,0.74556 0.2412119,1.58981 0,0.67977 -0.1644626,1.27184 -0.1644627,0.5811 -0.493388,1.05256 -0.3289253,0.4605 -0.8442417,0.80039 -0.5043522,0.32892 -1.2060595,0.49338 v 0.0439 q 0.7784566,0.10964 1.3485938,0.43857 0.5811014,0.31796 0.9538835,0.80038 0.372782,0.48243 0.5482088,1.09642 0.1754269,0.60303 0.1754269,1.28281 z"
         style="font-style:normal;font-variant:normal;font-weight:bold;font-stretch:condensed;font-size:22.45463562px;font-family:'Liberation Sans Narrow';-inkscape-font-specification:'Liberation Sans Narrow Bold Condensed';text-align:center;letter-spacing:-0.75679153px;word-spacing:0px;writing-mode:lr-tb;text-anchor:middle;stroke-width:0.7017073px"
         id="path975" />
      <path
         d="m 18.904723,290.06254 q 0,1.16221 -0.306997,2.14898 -0.296033,0.97581 -0.888098,1.69945 -0.592066,0.71267 -1.4692,1.11835 -0.877134,0.39471 -2.028373,0.39471 -1.063525,0 -1.852946,-0.307 -0.789421,-0.31796 -1.33763,-0.86617 -0.537244,-0.55917 -0.855206,-1.30474 -0.3069965,-0.74556 -0.4166383,-1.60077 l 2.5217613,-0.25217 q 0.07675,0.36181 0.197355,0.7017 0.13157,0.33989 0.361818,0.60303 0.241212,0.26314 0.581101,0.42761 0.33989,0.15349 0.833278,0.15349 0.942919,0 1.502092,-0.7346 0.559173,-0.7346 0.559173,-2.11608 0,-0.614 -0.142534,-1.10738 -0.131571,-0.49339 -0.394711,-0.84425 -0.252176,-0.35085 -0.624958,-0.53724 -0.372782,-0.18639 -0.844242,-0.18639 -0.624958,0 -1.041596,0.29603 -0.405675,0.28507 -0.679779,0.70171 h -2.46694 l 0.438567,-8.69459 h 7.620103 v 2.29151 h -5.317626 l -0.208319,3.90325 q 0.372782,-0.40568 0.942919,-0.69075 0.581101,-0.29603 1.348594,-0.29603 0.931955,0 1.666555,0.37278 0.745564,0.37278 1.249916,1.0416 0.515316,0.66881 0.778457,1.61173 0.274104,0.93196 0.274104,2.07223 z"
         style="font-style:normal;font-variant:normal;font-weight:bold;font-stretch:condensed;font-size:22.45463562px;font-family:'Liberation Sans Narrow';-inkscape-font-specification:'Liberation Sans Narrow Bold Condensed';text-align:center;letter-spacing:-0.75679153px;word-spacing:0px;writing-mode:lr-tb;text-anchor:middle;stroke-width:0.7017073px"
         id="path977" />
    </g>
  </g>
</svg>
