<?xml version="1.0" encoding="UTF-8" standalone="no"?>
<!-- Created with Inkscape (http://www.inkscape.org/) -->

<svg
   xmlns:dc="http://purl.org/dc/elements/1.1/"
   xmlns:cc="http://creativecommons.org/ns#"
   xmlns:rdf="http://www.w3.org/1999/02/22-rdf-syntax-ns#"
   xmlns:svg="http://www.w3.org/2000/svg"
   xmlns="http://www.w3.org/2000/svg"
   xmlns:sodipodi="http://sodipodi.sourceforge.net/DTD/sodipodi-0.dtd"
   xmlns:inkscape="http://www.inkscape.org/namespaces/inkscape"
   width="72"
   height="72"
   viewBox="0 0 19.05 19.050001"
   version="1.1"
   id="svg8"
   sodipodi:docname="numIcon.svg"
   inkscape:version="0.92.2 (5c3e80d, 2017-08-06)">
  <defs
     id="defs2" />
  <sodipodi:namedview
     id="base"
     pagecolor="#ffffff"
     bordercolor="#666666"
     borderopacity="1.0"
     inkscape:pageopacity="0.0"
     inkscape:pageshadow="2"
     inkscape:zoom="12.041667"
     inkscape:cx="23.888031"
     inkscape:cy="34.960949"
     inkscape:document-units="px"
     inkscape:current-layer="layer1"
     showgrid="true"
     units="px">
    <inkscape:grid
       type="xygrid"
       id="grid815" />
  </sodipodi:namedview>
  <metadata
     id="metadata5">
    <rdf:RDF>
      <cc:Work
         rdf:about="">
        <dc:format>image/svg+xml</dc:format>
        <dc:type
           rdf:resource="http://purl.org/dc/dcmitype/StillImage" />
        <dc:title></dc:title>
      </cc:Work>
    </rdf:RDF>
  </metadata>
  <g
     inkscape:label="Layer 1"
     inkscape:groupmode="layer"
     id="layer1"
     transform="translate(0,-277.94999)">
    <g
       aria-label="42"
       style="font-style:normal;font-variant:normal;font-weight:normal;font-stretch:normal;font-size:22.45463562px;line-height:125%;font-family:'Liberation Sans Narrow';-inkscape-font-specification:'Liberation Sans Narrow';text-align:center;letter-spacing:0px;word-spacing:0px;text-anchor:middle;fill:#000000;fill-opacity:1;stroke:none;stroke-width:0.7017073px;stroke-linecap:butt;stroke-linejoin:miter;stroke-opacity:1"
       id="text4518">
      <path
         d="m 8.1271993,292.05802 v 3.14672 H 5.7150802 v -3.14672 h -5.76715738 v -2.31344 l 5.35051868,-9.98836 h 2.8287578 v 10.01029 h 1.6884833 v 2.29151 z m -2.4121191,-7.346 q 0,-0.18639 0,-0.48242 0.010964,-0.307 0.021928,-0.62496 0.010964,-0.31796 0.021928,-0.60303 0.021928,-0.29603 0.032893,-0.46049 -0.043857,0.1206 -0.1425344,0.33989 l -0.2192835,0.48242 q -0.120606,0.26314 -0.2521761,0.51532 l -0.2302477,0.43856 -2.9383996,5.4492 h 3.705892 z"
         style="font-style:normal;font-variant:normal;font-weight:bold;font-stretch:condensed;font-size:22.45463562px;font-family:'Liberation Sans Narrow';-inkscape-font-specification:'Liberation Sans Narrow Bold Condensed';text-align:center;letter-spacing:-0.75679153px;word-spacing:0px;writing-mode:lr-tb;text-anchor:middle;stroke-width:0.7017073px"
         id="path1010" />
      <path
         d="m 9.8154198,295.20474 v -2.13801 q 0.4276032,-1.15124 1.0525612,-2.07223 0.624958,-0.93196 1.304737,-1.69945 0.679779,-0.77846 1.348594,-1.43631 0.668815,-0.66881 1.195095,-1.28281 0.537245,-0.62495 0.86617,-1.24991 0.33989,-0.62496 0.33989,-1.32667 0,-1.03063 -0.427603,-1.52402 -0.416639,-0.49339 -1.238952,-0.49339 -0.811349,0 -1.238952,0.53725 -0.416639,0.52628 -0.548209,1.5898 l -2.5436894,-0.17542 q 0.087713,-0.91003 0.3618174,-1.71041 0.285069,-0.80039 0.800385,-1.40342 0.515317,-0.60303 1.293773,-0.94292 0.778457,-0.35085 1.863911,-0.35085 1.019668,0 1.809089,0.29603 0.789421,0.28507 1.326665,0.84424 0.548209,0.55918 0.822314,1.37053 0.285068,0.80038 0.285068,1.83101 0,1.08546 -0.350853,1.96259 -0.350854,0.87713 -0.899063,1.6227 -0.548209,0.7346 -1.217024,1.38149 l -1.293773,1.26088 q -0.635922,0.61399 -1.162202,1.23895 -0.515317,0.62496 -0.767493,1.33763 h 5.887763 v 2.53272 z"
         style="font-style:normal;font-variant:normal;font-weight:bold;font-stretch:condensed;font-size:22.45463562px;font-family:'Liberation Sans Narrow';-inkscape-font-specification:'Liberation Sans Narrow Bold Condensed';text-align:center;letter-spacing:-0.75679153px;word-spacing:0px;writing-mode:lr-tb;text-anchor:middle;stroke-width:0.7017073px"
         id="path1012" />
    </g>
  </g>
</svg>
