<?xml version="1.0" encoding="UTF-8" standalone="no"?>
<!-- Created with Inkscape (http://www.inkscape.org/) -->

<svg
   xmlns:dc="http://purl.org/dc/elements/1.1/"
   xmlns:cc="http://creativecommons.org/ns#"
   xmlns:rdf="http://www.w3.org/1999/02/22-rdf-syntax-ns#"
   xmlns:svg="http://www.w3.org/2000/svg"
   xmlns="http://www.w3.org/2000/svg"
   xmlns:sodipodi="http://sodipodi.sourceforge.net/DTD/sodipodi-0.dtd"
   xmlns:inkscape="http://www.inkscape.org/namespaces/inkscape"
   width="72"
   height="72"
   viewBox="0 0 19.05 19.050001"
   version="1.1"
   id="svg8"
   sodipodi:docname="numIcon.svg"
   inkscape:version="0.92.2 (5c3e80d, 2017-08-06)">
  <defs
     id="defs2" />
  <sodipodi:namedview
     id="base"
     pagecolor="#ffffff"
     bordercolor="#666666"
     borderopacity="1.0"
     inkscape:pageopacity="0.0"
     inkscape:pageshadow="2"
     inkscape:zoom="12.041667"
     inkscape:cx="23.888031"
     inkscape:cy="35.210088"
     inkscape:document-units="px"
     inkscape:current-layer="layer1"
     showgrid="true"
     units="px">
    <inkscape:grid
       type="xygrid"
       id="grid815" />
  </sodipodi:namedview>
  <metadata
     id="metadata5">
    <rdf:RDF>
      <cc:Work
         rdf:about="">
        <dc:format>image/svg+xml</dc:format>
        <dc:type
           rdf:resource="http://purl.org/dc/dcmitype/StillImage" />
        <dc:title></dc:title>
      </cc:Work>
    </rdf:RDF>
  </metadata>
  <g
     inkscape:label="Layer 1"
     inkscape:groupmode="layer"
     id="layer1"
     transform="translate(0,-277.94999)">
    <g
       aria-label="62"
       style="font-style:normal;font-variant:normal;font-weight:normal;font-stretch:normal;font-size:22.45463562px;line-height:125%;font-family:'Liberation Sans Narrow';-inkscape-font-specification:'Liberation Sans Narrow';text-align:center;letter-spacing:0px;word-spacing:0px;text-anchor:middle;fill:#000000;fill-opacity:1;stroke:none;stroke-width:0.7017073px;stroke-linecap:butt;stroke-linejoin:miter;stroke-opacity:1"
       id="text4518">
      <path
         d="m 9.1576557,290.08434 q 0,1.1622 -0.2741044,2.13801 -0.2631403,0.96485 -0.800385,1.66656 -0.5262805,0.69074 -1.3266655,1.08545 -0.8003849,0.38375 -1.852946,0.38375 -2.2366922,0 -3.4427517,-1.90777 -1.19509538,-1.91873 -1.19509538,-5.67944 0,-4.1335 1.21702368,-6.21669 1.2170237,-2.09416 3.4756443,-2.09416 0.7565283,0 1.3705222,0.19736 0.6249581,0.18639 1.1073819,0.61399 0.493388,0.4276 0.8332775,1.10738 0.3398895,0.66882 0.5482089,1.63366 l -2.3792265,0.40568 q -0.1754269,-0.81135 -0.5811014,-1.1622 -0.4056746,-0.36182 -0.9538835,-0.36182 -1.0196685,0 -1.6007699,1.23895 -0.5701372,1.23895 -0.5701372,3.76071 0.4056745,-0.82231 1.1183461,-1.26088 0.7236357,-0.43856 1.6336624,-0.43856 0.8332775,0 1.5130565,0.33988 0.679779,0.32893 1.1622029,0.96485 0.4824238,0.62496 0.7345998,1.53499 0.2631403,0.91002 0.2631403,2.0503 z m -2.532725,0.0877 q 0,-0.62496 -0.120606,-1.11834 -0.1096417,-0.50436 -0.3508536,-0.85521 -0.2412119,-0.35085 -0.5920656,-0.53724 -0.3508537,-0.19736 -0.800385,-0.19736 -0.3289253,0 -0.6688148,0.13157 -0.3398895,0.13157 -0.6030298,0.4276 -0.2521761,0.28507 -0.4166387,0.7346 -0.1644627,0.44953 -0.1644627,1.08546 0,0.65785 0.1315701,1.22798 0.1425343,0.57014 0.3837463,0.99774 0.252176,0.41664 0.6030297,0.65786 0.3508537,0.23024 0.7894208,0.23024 0.8552058,0 1.3266655,-0.7346 0.4824238,-0.74556 0.4824238,-2.0503 z"
         style="font-style:normal;font-variant:normal;font-weight:bold;font-stretch:condensed;font-size:22.45463562px;font-family:'Liberation Sans Narrow';-inkscape-font-specification:'Liberation Sans Narrow Bold Condensed';text-align:center;letter-spacing:-0.75679153px;word-spacing:0px;writing-mode:lr-tb;text-anchor:middle;stroke-width:0.7017073px"
         id="path1110" />
      <path
         d="m 9.7275301,295.13882 v -2.13801 q 0.4276029,-1.15124 1.0525609,-2.07223 0.624958,-0.93195 1.304737,-1.69945 0.679779,-0.77845 1.348594,-1.4363 0.668815,-0.66882 1.195096,-1.28281 0.537244,-0.62496 0.86617,-1.24992 0.339889,-0.62496 0.339889,-1.32666 0,-1.03064 -0.427603,-1.52403 -0.416639,-0.49338 -1.238952,-0.49338 -0.811349,0 -1.238952,0.53724 -0.416639,0.52628 -0.548209,1.58981 l -2.5436891,-0.17543 q 0.087713,-0.91003 0.3618181,-1.71041 0.285068,-0.80039 0.800385,-1.40342 0.515316,-0.60303 1.293773,-0.94292 0.778456,-0.35085 1.86391,-0.35085 1.019668,0 1.809089,0.29603 0.789421,0.28507 1.326666,0.84425 0.548209,0.55917 0.822313,1.37052 0.285069,0.80038 0.285069,1.83101 0,1.08546 -0.350854,1.96259 -0.350854,0.87714 -0.899063,1.6227 -0.548209,0.7346 -1.217023,1.38149 l -1.293773,1.26088 q -0.635923,0.61399 -1.162203,1.23895 -0.515316,0.62496 -0.767493,1.33763 h 5.887764 v 2.53272 z"
         style="font-style:normal;font-variant:normal;font-weight:bold;font-stretch:condensed;font-size:22.45463562px;font-family:'Liberation Sans Narrow';-inkscape-font-specification:'Liberation Sans Narrow Bold Condensed';text-align:center;letter-spacing:-0.75679153px;word-spacing:0px;writing-mode:lr-tb;text-anchor:middle;stroke-width:0.7017073px"
         id="path1112" />
    </g>
  </g>
</svg>
