<?xml version="1.0" encoding="UTF-8" standalone="no"?>
<!-- Created with Inkscape (http://www.inkscape.org/) -->

<svg
   xmlns:dc="http://purl.org/dc/elements/1.1/"
   xmlns:cc="http://creativecommons.org/ns#"
   xmlns:rdf="http://www.w3.org/1999/02/22-rdf-syntax-ns#"
   xmlns:svg="http://www.w3.org/2000/svg"
   xmlns="http://www.w3.org/2000/svg"
   xmlns:sodipodi="http://sodipodi.sourceforge.net/DTD/sodipodi-0.dtd"
   xmlns:inkscape="http://www.inkscape.org/namespaces/inkscape"
   width="72"
   height="72"
   viewBox="0 0 19.05 19.050001"
   version="1.1"
   id="svg8"
   sodipodi:docname="numIcon.svg"
   inkscape:version="0.92.2 (5c3e80d, 2017-08-06)">
  <defs
     id="defs2" />
  <sodipodi:namedview
     id="base"
     pagecolor="#ffffff"
     bordercolor="#666666"
     borderopacity="1.0"
     inkscape:pageopacity="0.0"
     inkscape:pageshadow="2"
     inkscape:zoom="12.041667"
     inkscape:cx="23.888031"
     inkscape:cy="35.210088"
     inkscape:document-units="px"
     inkscape:current-layer="layer1"
     showgrid="true"
     units="px">
    <inkscape:grid
       type="xygrid"
       id="grid815" />
  </sodipodi:namedview>
  <metadata
     id="metadata5">
    <rdf:RDF>
      <cc:Work
         rdf:about="">
        <dc:format>image/svg+xml</dc:format>
        <dc:type
           rdf:resource="http://purl.org/dc/dcmitype/StillImage" />
        <dc:title></dc:title>
      </cc:Work>
    </rdf:RDF>
  </metadata>
  <g
     inkscape:label="Layer 1"
     inkscape:groupmode="layer"
     id="layer1"
     transform="translate(0,-277.94999)">
    <g
       aria-label="69"
       style="font-style:normal;font-variant:normal;font-weight:normal;font-stretch:normal;font-size:22.45463562px;line-height:125%;font-family:'Liberation Sans Narrow';-inkscape-font-specification:'Liberation Sans Narrow';text-align:center;letter-spacing:0px;word-spacing:0px;text-anchor:middle;fill:#000000;fill-opacity:1;stroke:none;stroke-width:0.7017073px;stroke-linecap:butt;stroke-linejoin:miter;stroke-opacity:1"
       id="text4518">
      <path
         d="m 9.1576557,290.08434 q 0,1.1622 -0.2741044,2.13801 -0.2631403,0.96485 -0.800385,1.66656 -0.5262805,0.69074 -1.3266655,1.08545 -0.8003849,0.38375 -1.852946,0.38375 -2.2366922,0 -3.4427517,-1.90777 -1.19509538,-1.91873 -1.19509538,-5.67944 0,-4.1335 1.21702368,-6.21669 1.2170237,-2.09416 3.4756443,-2.09416 0.7565283,0 1.3705222,0.19736 0.6249581,0.18639 1.1073819,0.61399 0.493388,0.4276 0.8332775,1.10738 0.3398895,0.66882 0.5482089,1.63366 l -2.3792265,0.40568 q -0.1754269,-0.81135 -0.5811014,-1.1622 -0.4056746,-0.36182 -0.9538835,-0.36182 -1.0196685,0 -1.6007699,1.23895 -0.5701372,1.23895 -0.5701372,3.76071 0.4056745,-0.82231 1.1183461,-1.26088 0.7236357,-0.43856 1.6336624,-0.43856 0.8332775,0 1.5130565,0.33988 0.679779,0.32893 1.1622029,0.96485 0.4824238,0.62496 0.7345998,1.53499 0.2631403,0.91002 0.2631403,2.0503 z m -2.532725,0.0877 q 0,-0.62496 -0.120606,-1.11834 -0.1096417,-0.50436 -0.3508536,-0.85521 -0.2412119,-0.35085 -0.5920656,-0.53724 -0.3508537,-0.19736 -0.800385,-0.19736 -0.3289253,0 -0.6688148,0.13157 -0.3398895,0.13157 -0.6030298,0.4276 -0.2521761,0.28507 -0.4166387,0.7346 -0.1644627,0.44953 -0.1644627,1.08546 0,0.65785 0.1315701,1.22798 0.1425343,0.57014 0.3837463,0.99774 0.252176,0.41664 0.6030297,0.65786 0.3508537,0.23024 0.7894208,0.23024 0.8552058,0 1.3266655,-0.7346 0.4824238,-0.74556 0.4824238,-2.0503 z"
         style="font-style:normal;font-variant:normal;font-weight:bold;font-stretch:condensed;font-size:22.45463562px;font-family:'Liberation Sans Narrow';-inkscape-font-specification:'Liberation Sans Narrow Bold Condensed';text-align:center;letter-spacing:-0.75679153px;word-spacing:0px;writing-mode:lr-tb;text-anchor:middle;stroke-width:0.7017073px"
         id="path1145" />
      <path
         d="m 18.652371,287.16787 q 0,4.11156 -1.238952,6.1509 -1.227988,2.03934 -3.497573,2.03934 -0.822313,0 -1.4692,-0.20832 -0.646886,-0.20832 -1.140274,-0.64689 -0.482424,-0.43856 -0.822314,-1.12931 -0.328925,-0.69074 -0.5262801,-1.64462 l 2.3682621,-0.40568 q 0.175427,0.82231 0.581102,1.21702 0.416638,0.39471 1.041596,0.39471 0.515317,0 0.910027,-0.29603 0.405675,-0.29603 0.690743,-0.89906 0.296033,-0.60303 0.449532,-1.52402 0.164462,-0.93196 0.164462,-2.19284 -0.175426,0.42761 -0.471459,0.75653 -0.296033,0.32893 -0.668815,0.54821 -0.372782,0.21928 -0.800385,0.33989 -0.416639,0.10964 -0.855206,0.10964 -0.822313,0 -1.502092,-0.35085 -0.668815,-0.36182 -1.151239,-1.03063 -0.47146,-0.66882 -0.7345998,-1.61174 -0.2521761,-0.95388 -0.2521761,-2.14898 0,-1.22799 0.2960329,-2.19283 0.306997,-0.96485 0.86617,-1.6227 0.570137,-0.66882 1.392451,-1.00871 0.833277,-0.35085 1.874874,-0.35085 1.096418,0 1.929695,0.4605 0.844242,0.44953 1.403415,1.40341 0.570137,0.94292 0.86617,2.40116 0.296033,1.44727 0.296033,3.44275 z m -2.67526,-2.15995 q 0,-0.65785 -0.120606,-1.22798 -0.120606,-0.5811 -0.361817,-0.99774 -0.241212,-0.42761 -0.592066,-0.66882 -0.350854,-0.24121 -0.811349,-0.24121 -0.427603,0 -0.756528,0.19735 -0.328926,0.1864 -0.570138,0.54821 -0.230247,0.36182 -0.350853,0.87714 -0.120606,0.51531 -0.120606,1.1622 0,0.60303 0.109641,1.12931 0.120606,0.51532 0.33989,0.89906 0.230248,0.37279 0.570137,0.59207 0.350854,0.20832 0.789421,0.20832 0.350854,0 0.679779,-0.1535 0.339889,-0.1535 0.60303,-0.4605 0.274104,-0.30699 0.427603,-0.76749 0.164462,-0.47146 0.164462,-1.09642 z"
         style="font-style:normal;font-variant:normal;font-weight:bold;font-stretch:condensed;font-size:22.45463562px;font-family:'Liberation Sans Narrow';-inkscape-font-specification:'Liberation Sans Narrow Bold Condensed';text-align:center;letter-spacing:-0.75679153px;word-spacing:0px;writing-mode:lr-tb;text-anchor:middle;stroke-width:0.7017073px"
         id="path1147" />
    </g>
  </g>
</svg>
