<?xml version="1.0" encoding="UTF-8" standalone="no"?>
<!-- Created with Inkscape (http://www.inkscape.org/) -->

<svg
   xmlns:dc="http://purl.org/dc/elements/1.1/"
   xmlns:cc="http://creativecommons.org/ns#"
   xmlns:rdf="http://www.w3.org/1999/02/22-rdf-syntax-ns#"
   xmlns:svg="http://www.w3.org/2000/svg"
   xmlns="http://www.w3.org/2000/svg"
   xmlns:sodipodi="http://sodipodi.sourceforge.net/DTD/sodipodi-0.dtd"
   xmlns:inkscape="http://www.inkscape.org/namespaces/inkscape"
   width="72"
   height="72"
   viewBox="0 0 19.05 19.050001"
   version="1.1"
   id="svg8"
   sodipodi:docname="numIcon.svg"
   inkscape:version="0.92.2 (5c3e80d, 2017-08-06)">
  <defs
     id="defs2" />
  <sodipodi:namedview
     id="base"
     pagecolor="#ffffff"
     bordercolor="#666666"
     borderopacity="1.0"
     inkscape:pageopacity="0.0"
     inkscape:pageshadow="2"
     inkscape:zoom="12.041667"
     inkscape:cx="23.888031"
     inkscape:cy="35.210088"
     inkscape:document-units="px"
     inkscape:current-layer="layer1"
     showgrid="true"
     units="px">
    <inkscape:grid
       type="xygrid"
       id="grid815" />
  </sodipodi:namedview>
  <metadata
     id="metadata5">
    <rdf:RDF>
      <cc:Work
         rdf:about="">
        <dc:format>image/svg+xml</dc:format>
        <dc:type
           rdf:resource="http://purl.org/dc/dcmitype/StillImage" />
        <dc:title></dc:title>
      </cc:Work>
    </rdf:RDF>
  </metadata>
  <g
     inkscape:label="Layer 1"
     inkscape:groupmode="layer"
     id="layer1"
     transform="translate(0,-277.94999)">
    <g
       aria-label="66"
       style="font-style:normal;font-variant:normal;font-weight:normal;font-stretch:normal;font-size:22.45463562px;line-height:125%;font-family:'Liberation Sans Narrow';-inkscape-font-specification:'Liberation Sans Narrow';text-align:center;letter-spacing:0px;word-spacing:0px;text-anchor:middle;fill:#000000;fill-opacity:1;stroke:none;stroke-width:0.7017073px;stroke-linecap:butt;stroke-linejoin:miter;stroke-opacity:1"
       id="text4518">
      <path
         d="m 9.1576557,290.08434 q 0,1.1622 -0.2741044,2.13801 -0.2631403,0.96485 -0.800385,1.66656 -0.5262805,0.69074 -1.3266655,1.08545 -0.8003849,0.38375 -1.852946,0.38375 -2.2366922,0 -3.4427517,-1.90777 -1.19509538,-1.91873 -1.19509538,-5.67944 0,-4.1335 1.21702368,-6.21669 1.2170237,-2.09416 3.4756443,-2.09416 0.7565283,0 1.3705222,0.19736 0.6249581,0.18639 1.1073819,0.61399 0.493388,0.4276 0.8332775,1.10738 0.3398895,0.66882 0.5482089,1.63366 l -2.3792265,0.40568 q -0.1754269,-0.81135 -0.5811014,-1.1622 -0.4056746,-0.36182 -0.9538835,-0.36182 -1.0196685,0 -1.6007699,1.23895 -0.5701372,1.23895 -0.5701372,3.76071 0.4056745,-0.82231 1.1183461,-1.26088 0.7236357,-0.43856 1.6336624,-0.43856 0.8332775,0 1.5130565,0.33988 0.679779,0.32893 1.1622029,0.96485 0.4824238,0.62496 0.7345998,1.53499 0.2631403,0.91002 0.2631403,2.0503 z m -2.532725,0.0877 q 0,-0.62496 -0.120606,-1.11834 -0.1096417,-0.50436 -0.3508536,-0.85521 -0.2412119,-0.35085 -0.5920656,-0.53724 -0.3508537,-0.19736 -0.800385,-0.19736 -0.3289253,0 -0.6688148,0.13157 -0.3398895,0.13157 -0.6030298,0.4276 -0.2521761,0.28507 -0.4166387,0.7346 -0.1644627,0.44953 -0.1644627,1.08546 0,0.65785 0.1315701,1.22798 0.1425343,0.57014 0.3837463,0.99774 0.252176,0.41664 0.6030297,0.65786 0.3508537,0.23024 0.7894208,0.23024 0.8552058,0 1.3266655,-0.7346 0.4824238,-0.74556 0.4824238,-2.0503 z"
         style="font-style:normal;font-variant:normal;font-weight:bold;font-stretch:condensed;font-size:22.45463562px;font-family:'Liberation Sans Narrow';-inkscape-font-specification:'Liberation Sans Narrow Bold Condensed';text-align:center;letter-spacing:-0.75679153px;word-spacing:0px;writing-mode:lr-tb;text-anchor:middle;stroke-width:0.7017073px"
         id="path1130" />
      <path
         d="m 18.663335,290.08434 q 0,1.1622 -0.274105,2.13801 -0.26314,0.96485 -0.800385,1.66656 -0.52628,0.69074 -1.326665,1.08545 -0.800385,0.38375 -1.852946,0.38375 -2.236692,0 -3.442752,-1.90777 -1.1950952,-1.91873 -1.1950952,-5.67944 0,-4.1335 1.2170242,-6.21669 1.217023,-2.09416 3.475644,-2.09416 0.756528,0 1.370522,0.19736 0.624958,0.18639 1.107382,0.61399 0.493388,0.4276 0.833277,1.10738 0.33989,0.66882 0.548209,1.63366 l -2.379226,0.40568 q -0.175427,-0.81135 -0.581102,-1.1622 -0.405674,-0.36182 -0.953883,-0.36182 -1.019669,0 -1.60077,1.23895 -0.570137,1.23895 -0.570137,3.76071 0.405674,-0.82231 1.118346,-1.26088 0.723636,-0.43856 1.633662,-0.43856 0.833278,0 1.513057,0.33988 0.679779,0.32893 1.162203,0.96485 0.482423,0.62496 0.7346,1.53499 0.26314,0.91002 0.26314,2.0503 z m -2.532725,0.0877 q 0,-0.62496 -0.120606,-1.11834 -0.109642,-0.50436 -0.350854,-0.85521 -0.241212,-0.35085 -0.592065,-0.53724 -0.350854,-0.19736 -0.800385,-0.19736 -0.328926,0 -0.668815,0.13157 -0.33989,0.13157 -0.60303,0.4276 -0.252176,0.28507 -0.416639,0.7346 -0.164462,0.44953 -0.164462,1.08546 0,0.65785 0.13157,1.22798 0.142534,0.57014 0.383746,0.99774 0.252176,0.41664 0.60303,0.65786 0.350853,0.23024 0.789421,0.23024 0.855205,0 1.326665,-0.7346 0.482424,-0.74556 0.482424,-2.0503 z"
         style="font-style:normal;font-variant:normal;font-weight:bold;font-stretch:condensed;font-size:22.45463562px;font-family:'Liberation Sans Narrow';-inkscape-font-specification:'Liberation Sans Narrow Bold Condensed';text-align:center;letter-spacing:-0.75679153px;word-spacing:0px;writing-mode:lr-tb;text-anchor:middle;stroke-width:0.7017073px"
         id="path1132" />
    </g>
  </g>
</svg>
