<?xml version="1.0" encoding="UTF-8" standalone="no"?>
<!-- Created with Inkscape (http://www.inkscape.org/) -->

<svg
   xmlns:dc="http://purl.org/dc/elements/1.1/"
   xmlns:cc="http://creativecommons.org/ns#"
   xmlns:rdf="http://www.w3.org/1999/02/22-rdf-syntax-ns#"
   xmlns:svg="http://www.w3.org/2000/svg"
   xmlns="http://www.w3.org/2000/svg"
   xmlns:sodipodi="http://sodipodi.sourceforge.net/DTD/sodipodi-0.dtd"
   xmlns:inkscape="http://www.inkscape.org/namespaces/inkscape"
   width="72"
   height="72"
   viewBox="0 0 19.05 19.050001"
   version="1.1"
   id="svg8"
   sodipodi:docname="numIcon.svg"
   inkscape:version="0.92.2 (5c3e80d, 2017-08-06)">
  <defs
     id="defs2" />
  <sodipodi:namedview
     id="base"
     pagecolor="#ffffff"
     bordercolor="#666666"
     borderopacity="1.0"
     inkscape:pageopacity="0.0"
     inkscape:pageshadow="2"
     inkscape:zoom="12.041667"
     inkscape:cx="23.888031"
     inkscape:cy="35.210088"
     inkscape:document-units="px"
     inkscape:current-layer="layer1"
     showgrid="true"
     units="px">
    <inkscape:grid
       type="xygrid"
       id="grid815" />
  </sodipodi:namedview>
  <metadata
     id="metadata5">
    <rdf:RDF>
      <cc:Work
         rdf:about="">
        <dc:format>image/svg+xml</dc:format>
        <dc:type
           rdf:resource="http://purl.org/dc/dcmitype/StillImage" />
        <dc:title></dc:title>
      </cc:Work>
    </rdf:RDF>
  </metadata>
  <g
     inkscape:label="Layer 1"
     inkscape:groupmode="layer"
     id="layer1"
     transform="translate(0,-277.94999)">
    <g
       aria-label="72"
       style="font-style:normal;font-variant:normal;font-weight:normal;font-stretch:normal;font-size:22.45463562px;line-height:125%;font-family:'Liberation Sans Narrow';-inkscape-font-specification:'Liberation Sans Narrow';text-align:center;letter-spacing:0px;word-spacing:0px;text-anchor:middle;fill:#000000;fill-opacity:1;stroke:none;stroke-width:0.7017073px;stroke-linecap:butt;stroke-linejoin:miter;stroke-opacity:1"
       id="text4518">
      <path
         d="m 9.0151214,282.13531 q 0,0 -1.6117341,3.19058 -0.7565283,1.54594 -1.3266655,3.11382 -0.5701372,1.55692 -0.8990625,3.21251 -0.3179612,1.64462 -0.3179612,3.4866 H 2.2173313 q 0,-1.83101 0.3508537,-3.47564 0.3618179,-1.65559 0.9758118,-3.22347 0.6139939,-1.56788 1.4143789,-3.10286 l 1.7104117,-3.11383 H 0.37534949 V 279.6903 H 9.0151214 Z"
         style="font-style:normal;font-variant:normal;font-weight:bold;font-stretch:condensed;font-size:22.45463562px;font-family:'Liberation Sans Narrow';-inkscape-font-specification:'Liberation Sans Narrow Bold Condensed';text-align:center;letter-spacing:-0.75679153px;word-spacing:0px;writing-mode:lr-tb;text-anchor:middle;stroke-width:0.7017073px"
         id="path1160" />
      <path
         d="m 9.7275301,295.13882 v -2.13801 q 0.4276029,-1.15124 1.0525609,-2.07223 0.624958,-0.93195 1.304737,-1.69945 0.679779,-0.77845 1.348594,-1.4363 0.668815,-0.66882 1.195096,-1.28281 0.537244,-0.62496 0.86617,-1.24992 0.339889,-0.62496 0.339889,-1.32666 0,-1.03064 -0.427603,-1.52403 -0.416639,-0.49338 -1.238952,-0.49338 -0.811349,0 -1.238952,0.53724 -0.416639,0.52628 -0.548209,1.58981 l -2.5436891,-0.17543 q 0.087713,-0.91003 0.3618181,-1.71041 0.285068,-0.80039 0.800385,-1.40342 0.515316,-0.60303 1.293773,-0.94292 0.778456,-0.35085 1.86391,-0.35085 1.019668,0 1.809089,0.29603 0.789421,0.28507 1.326666,0.84425 0.548209,0.55917 0.822313,1.37052 0.285069,0.80038 0.285069,1.83101 0,1.08546 -0.350854,1.96259 -0.350854,0.87714 -0.899063,1.6227 -0.548209,0.7346 -1.217023,1.38149 l -1.293773,1.26088 q -0.635923,0.61399 -1.162203,1.23895 -0.515316,0.62496 -0.767493,1.33763 h 5.887764 v 2.53272 z"
         style="font-style:normal;font-variant:normal;font-weight:bold;font-stretch:condensed;font-size:22.45463562px;font-family:'Liberation Sans Narrow';-inkscape-font-specification:'Liberation Sans Narrow Bold Condensed';text-align:center;letter-spacing:-0.75679153px;word-spacing:0px;writing-mode:lr-tb;text-anchor:middle;stroke-width:0.7017073px"
         id="path1162" />
    </g>
  </g>
</svg>
