<?xml version="1.0" encoding="UTF-8" standalone="no"?>
<!-- Created with Inkscape (http://www.inkscape.org/) -->

<svg
   xmlns:dc="http://purl.org/dc/elements/1.1/"
   xmlns:cc="http://creativecommons.org/ns#"
   xmlns:rdf="http://www.w3.org/1999/02/22-rdf-syntax-ns#"
   xmlns:svg="http://www.w3.org/2000/svg"
   xmlns="http://www.w3.org/2000/svg"
   xmlns:sodipodi="http://sodipodi.sourceforge.net/DTD/sodipodi-0.dtd"
   xmlns:inkscape="http://www.inkscape.org/namespaces/inkscape"
   width="72"
   height="72"
   viewBox="0 0 19.05 19.050001"
   version="1.1"
   id="svg8"
   sodipodi:docname="numIcon.svg"
   inkscape:version="0.92.2 (5c3e80d, 2017-08-06)">
  <defs
     id="defs2" />
  <sodipodi:namedview
     id="base"
     pagecolor="#ffffff"
     bordercolor="#666666"
     borderopacity="1.0"
     inkscape:pageopacity="0.0"
     inkscape:pageshadow="2"
     inkscape:zoom="12.041667"
     inkscape:cx="23.888031"
     inkscape:cy="25.414834"
     inkscape:document-units="px"
     inkscape:current-layer="layer1"
     showgrid="true"
     units="px">
    <inkscape:grid
       type="xygrid"
       id="grid815" />
  </sodipodi:namedview>
  <metadata
     id="metadata5">
    <rdf:RDF>
      <cc:Work
         rdf:about="">
        <dc:format>image/svg+xml</dc:format>
        <dc:type
           rdf:resource="http://purl.org/dc/dcmitype/StillImage" />
        <dc:title></dc:title>
      </cc:Work>
    </rdf:RDF>
  </metadata>
  <g
     inkscape:label="Layer 1"
     inkscape:groupmode="layer"
     id="layer1"
     transform="translate(0,-277.94999)">
    <g
       aria-label="89"
       style="font-style:normal;font-variant:normal;font-weight:normal;font-stretch:normal;font-size:22.45463562px;line-height:125%;font-family:'Liberation Sans Narrow';-inkscape-font-specification:'Liberation Sans Narrow';text-align:center;letter-spacing:0px;word-spacing:0px;text-anchor:middle;fill:#000000;fill-opacity:1;stroke:none;stroke-width:0.7017073px;stroke-linecap:butt;stroke-linejoin:miter;stroke-opacity:1"
       id="text4518">
      <path
         d="m 9.3168125,290.85196 q 0,0.99774 -0.2741045,1.84199 -0.2631402,0.83327 -0.8223133,1.44727 -0.559173,0.60303 -1.4143789,0.94292 -0.8442417,0.33989 -2.0283728,0.33989 -1.173167,0 -2.0283729,-0.33989 -0.8552058,-0.33989 -1.4253431,-0.94292 -0.55917302,-0.614 -0.83327746,-1.44727 -0.26314026,-0.83328 -0.26314026,-1.82006 0,-0.84424 0.21928355,-1.49113 0.21928355,-0.65785 0.57013727,-1.12931 0.3618178,-0.47146 0.8332775,-0.74556 0.4714596,-0.28507 0.9648476,-0.38375 v -0.0439 q -0.5262805,-0.14254 -0.9538835,-0.47146 -0.4276029,-0.32893 -0.7236357,-0.78942 -0.29603277,-0.4605 -0.46049544,-1.01967 -0.15349848,-0.57014 -0.15349848,-1.18413 0,-0.92099 0.27410444,-1.67752 0.27410448,-0.75653 0.80038498,-1.29378 0.5372447,-0.53724 1.3266655,-0.82231 0.7894207,-0.29603 1.8200534,-0.29603 1.107382,0 1.9077669,0.307 0.8113492,0.29603 1.3266655,0.84424 0.5262805,0.53724 0.7784566,1.29377 0.2521761,0.75653 0.2521761,1.66656 0,0.60302 -0.1644627,1.17316 -0.1534984,0.55918 -0.4495312,1.01967 -0.2960328,0.4605 -0.7236358,0.77846 -0.4276029,0.31796 -0.9648476,0.44953 v 0.0439 q 0.5591731,0.10964 1.0306327,0.40567 0.4824238,0.28507 0.8332775,0.75653 0.3508537,0.46049 0.5482089,1.11834 0.1973552,0.64689 0.1973552,1.4692 z M 6.4113054,283.802 q 0,-0.4605 -0.087713,-0.84424 -0.076749,-0.39471 -0.2741044,-0.66882 -0.1863911,-0.28507 -0.5043522,-0.43857 -0.3179612,-0.16446 -0.800385,-0.16446 -0.4714596,0 -0.7894208,0.16446 -0.3069969,0.1535 -0.5043521,0.43857 -0.186391,0.27411 -0.2631403,0.66882 -0.076749,0.38374 -0.076749,0.84424 0,0.40567 0.065785,0.80038 0.065785,0.39471 0.2412119,0.71267 0.1863911,0.307 0.5043522,0.50436 0.3289253,0.19735 0.8442417,0.19735 0.5372447,0 0.86617,-0.19735 0.3289253,-0.19736 0.493388,-0.51532 0.1754268,-0.31796 0.2302477,-0.71267 0.054821,-0.39471 0.054821,-0.78942 z m 0.2960328,6.79779 q 0,-0.47146 -0.087713,-0.91003 -0.087713,-0.43857 -0.306997,-0.76749 -0.2192835,-0.33989 -0.6139939,-0.53725 -0.3837462,-0.20832 -0.9758118,-0.20832 -0.5372447,0 -0.8990626,0.20832 -0.3618178,0.19736 -0.5811014,0.53725 -0.2192835,0.33989 -0.3179611,0.78942 -0.098678,0.43857 -0.098678,0.93195 0,0.58111 0.098678,1.06353 0.098678,0.48242 0.3179611,0.83328 0.2302477,0.33989 0.6030298,0.52628 0.3837462,0.18639 0.9538834,0.18639 0.5701373,0 0.9319551,-0.18639 0.372782,-0.19736 0.5811014,-0.54821 0.2192836,-0.35085 0.306997,-0.83328 0.087713,-0.49339 0.087713,-1.08545 z"
         style="font-style:normal;font-variant:normal;font-weight:bold;font-stretch:condensed;font-size:22.45463562px;font-family:'Liberation Sans Narrow';-inkscape-font-specification:'Liberation Sans Narrow Bold Condensed';text-align:center;letter-spacing:-0.75679153px;word-spacing:0px;writing-mode:lr-tb;text-anchor:middle;stroke-width:0.7017073px"
         id="path1245" />
      <path
         d="m 18.71285,287.23379 q 0,4.11156 -1.238952,6.1509 -1.227988,2.03934 -3.497573,2.03934 -0.822313,0 -1.4692,-0.20832 -0.646886,-0.20832 -1.140274,-0.64689 -0.482424,-0.43857 -0.822313,-1.12931 -0.328926,-0.69074 -0.526281,-1.64463 l 2.368262,-0.40567 q 0.175427,0.82231 0.581102,1.21702 0.416639,0.39471 1.041597,0.39471 0.515316,0 0.910026,-0.29603 0.405675,-0.29603 0.690744,-0.89906 0.296032,-0.60303 0.449531,-1.52402 0.164463,-0.93196 0.164463,-2.19284 -0.175427,0.4276 -0.47146,0.75653 -0.296033,0.32892 -0.668815,0.54821 -0.372782,0.21928 -0.800385,0.33989 -0.416639,0.10964 -0.855206,0.10964 -0.822313,0 -1.502092,-0.35085 -0.668815,-0.36182 -1.151239,-1.03064 -0.471459,-0.66881 -0.7346,-1.61173 -0.2521757,-0.95388 -0.2521757,-2.14898 0,-1.22799 0.2960327,-2.19284 0.306997,-0.96484 0.86617,-1.62269 0.570137,-0.66882 1.392451,-1.00871 0.833277,-0.35085 1.874874,-0.35085 1.096418,0 1.929695,0.46049 0.844242,0.44954 1.403415,1.40342 0.570137,0.94292 0.86617,2.40115 0.296033,1.44728 0.296033,3.44276 z m -2.675259,-2.15995 q 0,-0.65785 -0.120606,-1.22799 -0.120606,-0.5811 -0.361818,-0.99774 -0.241212,-0.4276 -0.592066,-0.66881 -0.350854,-0.24121 -0.811349,-0.24121 -0.427603,0 -0.756528,0.19735 -0.328926,0.18639 -0.570138,0.54821 -0.230247,0.36182 -0.350853,0.87714 -0.120606,0.51531 -0.120606,1.1622 0,0.60303 0.109642,1.12931 0.120606,0.51532 0.339889,0.89906 0.230248,0.37278 0.570137,0.59207 0.350854,0.20832 0.789421,0.20832 0.350854,0 0.679779,-0.1535 0.33989,-0.1535 0.60303,-0.4605 0.274104,-0.30699 0.427603,-0.76749 0.164463,-0.47146 0.164463,-1.09642 z"
         style="font-style:normal;font-variant:normal;font-weight:bold;font-stretch:condensed;font-size:22.45463562px;font-family:'Liberation Sans Narrow';-inkscape-font-specification:'Liberation Sans Narrow Bold Condensed';text-align:center;letter-spacing:-0.75679153px;word-spacing:0px;writing-mode:lr-tb;text-anchor:middle;stroke-width:0.7017073px"
         id="path1247" />
    </g>
  </g>
</svg>
