<?xml version="1.0" encoding="UTF-8" standalone="no"?>
<!-- Created with Inkscape (http://www.inkscape.org/) -->

<svg
   xmlns:dc="http://purl.org/dc/elements/1.1/"
   xmlns:cc="http://creativecommons.org/ns#"
   xmlns:rdf="http://www.w3.org/1999/02/22-rdf-syntax-ns#"
   xmlns:svg="http://www.w3.org/2000/svg"
   xmlns="http://www.w3.org/2000/svg"
   xmlns:sodipodi="http://sodipodi.sourceforge.net/DTD/sodipodi-0.dtd"
   xmlns:inkscape="http://www.inkscape.org/namespaces/inkscape"
   width="72"
   height="72"
   viewBox="0 0 19.05 19.050001"
   version="1.1"
   id="svg8"
   sodipodi:docname="numIcon.svg"
   inkscape:version="0.92.2 (5c3e80d, 2017-08-06)">
  <defs
     id="defs2" />
  <sodipodi:namedview
     id="base"
     pagecolor="#ffffff"
     bordercolor="#666666"
     borderopacity="1.0"
     inkscape:pageopacity="0.0"
     inkscape:pageshadow="2"
     inkscape:zoom="12.041667"
     inkscape:cx="23.888031"
     inkscape:cy="34.960949"
     inkscape:document-units="px"
     inkscape:current-layer="layer1"
     showgrid="true"
     units="px">
    <inkscape:grid
       type="xygrid"
       id="grid815" />
  </sodipodi:namedview>
  <metadata
     id="metadata5">
    <rdf:RDF>
      <cc:Work
         rdf:about="">
        <dc:format>image/svg+xml</dc:format>
        <dc:type
           rdf:resource="http://purl.org/dc/dcmitype/StillImage" />
        <dc:title></dc:title>
      </cc:Work>
    </rdf:RDF>
  </metadata>
  <g
     inkscape:label="Layer 1"
     inkscape:groupmode="layer"
     id="layer1"
     transform="translate(0,-277.94999)">
    <g
       aria-label="95"
       style="font-style:normal;font-variant:normal;font-weight:normal;font-stretch:normal;font-size:22.45463562px;line-height:125%;font-family:'Liberation Sans Narrow';-inkscape-font-specification:'Liberation Sans Narrow';text-align:center;letter-spacing:0px;word-spacing:0px;text-anchor:middle;fill:#000000;fill-opacity:1;stroke:none;stroke-width:0.7017073px;stroke-linecap:butt;stroke-linejoin:miter;stroke-opacity:1"
       id="text4518">
      <path
         d="m 9.2071707,287.23379 q 0,4.11156 -1.2389521,6.1509 -1.2279879,2.03934 -3.4975726,2.03934 -0.8223133,0 -1.4691998,-0.20832 -0.6468865,-0.20832 -1.1402745,-0.64689 -0.4824238,-0.43857 -0.8223133,-1.12931 -0.32892531,-0.69074 -0.5262805,-1.64463 l 2.3682623,-0.40567 q 0.1754269,0.82231 0.5811015,1.21702 0.4166387,0.39471 1.0415968,0.39471 0.5153164,0 0.9100268,-0.29603 0.4056745,-0.29603 0.6907431,-0.89906 0.2960328,-0.60303 0.4495313,-1.52402 0.1644627,-0.93196 0.1644627,-2.19284 -0.1754268,0.4276 -0.4714596,0.75653 -0.2960328,0.32892 -0.6688149,0.54821 -0.372782,0.21928 -0.8003849,0.33989 -0.4166388,0.10964 -0.8552059,0.10964 -0.8223133,0 -1.5020923,-0.35085 -0.6688148,-0.36182 -1.1512387,-1.03064 -0.47145958,-0.66881 -0.73459985,-1.61173 -0.25217608,-0.95388 -0.25217608,-2.14898 0,-1.22799 0.29603279,-2.19284 0.30699698,-0.96484 0.86617004,-1.62269 0.5701372,-0.66882 1.3924505,-1.00871 0.8332775,-0.35085 1.8748744,-0.35085 1.0964178,0 1.9296952,0.46049 0.8442417,0.44954 1.4034148,1.40342 0.5701372,0.94292 0.86617,2.40115 0.2960328,1.44728 0.2960328,3.44276 z m -2.6752593,-2.15995 q 0,-0.65785 -0.120606,-1.22799 -0.1206059,-0.5811 -0.3618178,-0.99774 -0.2412119,-0.4276 -0.5920656,-0.66881 -0.3508537,-0.24121 -0.8113492,-0.24121 -0.4276029,0 -0.7565282,0.19735 -0.3289253,0.18639 -0.5701372,0.54821 -0.2302478,0.36182 -0.3508537,0.87714 -0.120606,0.51531 -0.120606,1.1622 0,0.60303 0.1096418,1.12931 0.1206059,0.51532 0.3398895,0.89906 0.2302477,0.37278 0.5701372,0.59207 0.3508537,0.20832 0.7894208,0.20832 0.3508537,0 0.679779,-0.1535 0.3398895,-0.1535 0.6030298,-0.4605 0.2741044,-0.30699 0.4276029,-0.76749 0.1644627,-0.47146 0.1644627,-1.09642 z"
         style="font-style:normal;font-variant:normal;font-weight:bold;font-stretch:condensed;font-size:22.45463562px;font-family:'Liberation Sans Narrow';-inkscape-font-specification:'Liberation Sans Narrow Bold Condensed';text-align:center;letter-spacing:-0.75679153px;word-spacing:0px;writing-mode:lr-tb;text-anchor:middle;stroke-width:0.7017073px"
         id="path1275" />
      <path
         d="m 18.877312,290.06254 q 0,1.16221 -0.306996,2.14898 -0.296033,0.97581 -0.888099,1.69945 -0.592065,0.71267 -1.4692,1.11835 -0.877134,0.39471 -2.028373,0.39471 -1.063525,0 -1.852946,-0.307 -0.78942,-0.31796 -1.337629,-0.86617 -0.537245,-0.55917 -0.855206,-1.30474 -0.306997,-0.74556 -0.4166388,-1.60077 l 2.5217608,-0.25217 q 0.07675,0.36181 0.197355,0.7017 0.13157,0.33989 0.361818,0.60303 0.241212,0.26314 0.581102,0.42761 0.339889,0.15349 0.833277,0.15349 0.942919,0 1.502092,-0.7346 0.559173,-0.7346 0.559173,-2.11608 0,-0.614 -0.142534,-1.10738 -0.13157,-0.49339 -0.39471,-0.84425 -0.252176,-0.35085 -0.624958,-0.53724 -0.372782,-0.18639 -0.844242,-0.18639 -0.624958,0 -1.041597,0.29603 -0.405675,0.28507 -0.679779,0.70171 h -2.46694 l 0.438567,-8.69459 h 7.620104 v 2.29151 h -5.317627 l -0.208319,3.90325 q 0.372782,-0.40568 0.942919,-0.69075 0.581102,-0.29603 1.348594,-0.29603 0.931955,0 1.666555,0.37278 0.745564,0.37278 1.249916,1.0416 0.515317,0.66881 0.778457,1.61173 0.274104,0.93196 0.274104,2.07223 z"
         style="font-style:normal;font-variant:normal;font-weight:bold;font-stretch:condensed;font-size:22.45463562px;font-family:'Liberation Sans Narrow';-inkscape-font-specification:'Liberation Sans Narrow Bold Condensed';text-align:center;letter-spacing:-0.75679153px;word-spacing:0px;writing-mode:lr-tb;text-anchor:middle;stroke-width:0.7017073px"
         id="path1277" />
    </g>
  </g>
</svg>
