<?xml version="1.0" encoding="UTF-8" standalone="no"?>
<!-- Created with Inkscape (http://www.inkscape.org/) -->

<svg
   xmlns:dc="http://purl.org/dc/elements/1.1/"
   xmlns:cc="http://creativecommons.org/ns#"
   xmlns:rdf="http://www.w3.org/1999/02/22-rdf-syntax-ns#"
   xmlns:svg="http://www.w3.org/2000/svg"
   xmlns="http://www.w3.org/2000/svg"
   xmlns:sodipodi="http://sodipodi.sourceforge.net/DTD/sodipodi-0.dtd"
   xmlns:inkscape="http://www.inkscape.org/namespaces/inkscape"
   width="72"
   height="72"
   viewBox="0 0 19.05 19.050001"
   version="1.1"
   id="svg8"
   sodipodi:docname="numIcon.svg"
   inkscape:version="0.92.2 (5c3e80d, 2017-08-06)">
  <defs
     id="defs2" />
  <sodipodi:namedview
     id="base"
     pagecolor="#ffffff"
     bordercolor="#666666"
     borderopacity="1.0"
     inkscape:pageopacity="0.0"
     inkscape:pageshadow="2"
     inkscape:zoom="12.041667"
     inkscape:cx="23.888031"
     inkscape:cy="34.960949"
     inkscape:document-units="px"
     inkscape:current-layer="layer1"
     showgrid="true"
     units="px">
    <inkscape:grid
       type="xygrid"
       id="grid815" />
  </sodipodi:namedview>
  <metadata
     id="metadata5">
    <rdf:RDF>
      <cc:Work
         rdf:about="">
        <dc:format>image/svg+xml</dc:format>
        <dc:type
           rdf:resource="http://purl.org/dc/dcmitype/StillImage" />
        <dc:title></dc:title>
      </cc:Work>
    </rdf:RDF>
  </metadata>
  <g
     inkscape:label="Layer 1"
     inkscape:groupmode="layer"
     id="layer1"
     transform="translate(0,-277.94999)">
    <g
       aria-label="9"
       style="font-style:normal;font-variant:normal;font-weight:normal;font-stretch:normal;font-size:22.45463562px;line-height:125%;font-family:'Liberation Sans Narrow';-inkscape-font-specification:'Liberation Sans Narrow';text-align:center;letter-spacing:0px;word-spacing:0px;text-anchor:middle;fill:#ffffff;fill-opacity:1;stroke:none;stroke-width:0.7017073px;stroke-linecap:butt;stroke-linejoin:miter;stroke-opacity:1"
       id="text4518">
      <path
         d="m 13.987421,287.23379 q 0,4.11156 -1.238953,6.1509 -1.227987,2.03934 -3.4975722,2.03934 -0.8223133,0 -1.4691998,-0.20832 -0.6468864,-0.20832 -1.1402744,-0.64689 -0.4824238,-0.43857 -0.8223133,-1.12931 -0.3289254,-0.69074 -0.5262806,-1.64463 l 2.3682624,-0.40567 q 0.1754268,0.82231 0.5811014,1.21702 0.4166387,0.39471 1.0415969,0.39471 0.5153163,0 0.9100266,-0.29603 0.405675,-0.29603 0.690743,-0.89906 0.296033,-0.60303 0.449532,-1.52402 0.164462,-0.93196 0.164462,-2.19284 -0.175427,0.4276 -0.471459,0.75653 -0.296033,0.32892 -0.668815,0.54821 -0.3727823,0.21928 -0.8003852,0.33989 -0.4166387,0.10964 -0.8552058,0.10964 -0.8223134,0 -1.5020924,-0.35085 Q 6.5317798,289.13059 6.049356,288.46177 5.5778963,287.79296 5.3147561,286.85004 5.06258,285.89616 5.06258,284.70106 q 0,-1.22799 0.2960328,-2.19284 0.306997,-0.96484 0.86617,-1.62269 0.5701373,-0.66882 1.3924506,-1.00871 0.8332775,-0.35085 1.8748743,-0.35085 1.0964173,0 1.9296953,0.46049 0.844242,0.44954 1.403415,1.40342 0.570137,0.94292 0.86617,2.40115 0.296033,1.44728 0.296033,3.44276 z m -2.67526,-2.15995 q 0,-0.65785 -0.120606,-1.22799 -0.120606,-0.5811 -0.361818,-0.99774 -0.241212,-0.4276 -0.592065,-0.66881 -0.3508539,-0.24121 -0.8113493,-0.24121 -0.427603,0 -0.7565283,0.19735 -0.3289253,0.18639 -0.5701372,0.54821 -0.2302477,0.36182 -0.3508537,0.87714 -0.1206059,0.51531 -0.1206059,1.1622 0,0.60303 0.1096417,1.12931 0.120606,0.51532 0.3398895,0.89906 0.2302478,0.37278 0.5701373,0.59207 0.3508536,0.20832 0.7894207,0.20832 0.3508537,0 0.6797792,-0.1535 0.339889,-0.1535 0.60303,-0.4605 0.274104,-0.30699 0.427603,-0.76749 0.164462,-0.47146 0.164462,-1.09642 z"
         style="font-style:normal;font-variant:normal;font-weight:bold;font-stretch:condensed;font-size:22.45463562px;font-family:'Liberation Sans Narrow';-inkscape-font-specification:'Liberation Sans Narrow Bold Condensed';text-align:center;letter-spacing:-0.75679153px;word-spacing:0px;writing-mode:lr-tb;text-anchor:middle;stroke-width:0.7017073px"
         id="path844" />
    </g>
  </g>
</svg>
