<?xml version="1.0" encoding="UTF-8" standalone="no"?>
<!-- Created with Inkscape (http://www.inkscape.org/) -->

<svg
   xmlns:dc="http://purl.org/dc/elements/1.1/"
   xmlns:cc="http://creativecommons.org/ns#"
   xmlns:rdf="http://www.w3.org/1999/02/22-rdf-syntax-ns#"
   xmlns:svg="http://www.w3.org/2000/svg"
   xmlns="http://www.w3.org/2000/svg"
   xmlns:sodipodi="http://sodipodi.sourceforge.net/DTD/sodipodi-0.dtd"
   xmlns:inkscape="http://www.inkscape.org/namespaces/inkscape"
   width="72"
   height="72"
   viewBox="0 0 19.05 19.050001"
   version="1.1"
   id="svg8"
   sodipodi:docname="numIcon.svg"
   inkscape:version="0.92.2 (5c3e80d, 2017-08-06)">
  <defs
     id="defs2" />
  <sodipodi:namedview
     id="base"
     pagecolor="#ffffff"
     bordercolor="#666666"
     borderopacity="1.0"
     inkscape:pageopacity="0.0"
     inkscape:pageshadow="2"
     inkscape:zoom="12.041667"
     inkscape:cx="23.888031"
     inkscape:cy="34.960949"
     inkscape:document-units="px"
     inkscape:current-layer="layer1"
     showgrid="true"
     units="px">
    <inkscape:grid
       type="xygrid"
       id="grid815" />
  </sodipodi:namedview>
  <metadata
     id="metadata5">
    <rdf:RDF>
      <cc:Work
         rdf:about="">
        <dc:format>image/svg+xml</dc:format>
        <dc:type
           rdf:resource="http://purl.org/dc/dcmitype/StillImage" />
        <dc:title></dc:title>
      </cc:Work>
    </rdf:RDF>
  </metadata>
  <g
     inkscape:label="Layer 1"
     inkscape:groupmode="layer"
     id="layer1"
     transform="translate(0,-277.94999)">
    <g
       aria-label="20"
       style="font-style:normal;font-variant:normal;font-weight:normal;font-stretch:normal;font-size:22.45463562px;line-height:125%;font-family:'Liberation Sans Narrow';-inkscape-font-specification:'Liberation Sans Narrow';text-align:center;letter-spacing:0px;word-spacing:0px;text-anchor:middle;fill:#ffffff;fill-opacity:1;stroke:none;stroke-width:0.7017073px;stroke-linecap:butt;stroke-linejoin:miter;stroke-opacity:1"
       id="text4518">
      <path
         d="m 0.30974068,295.20474 v -2.13801 q 0.42760292,-1.15124 1.05256102,-2.07223 0.6249581,-0.93196 1.3047372,-1.69945 0.679779,-0.77846 1.3485938,-1.43631 0.6688148,-0.66881 1.1950953,-1.28281 0.5372447,-0.62495 0.8661701,-1.24991 0.3398895,-0.62496 0.3398895,-1.32667 0,-1.03063 -0.427603,-1.52402 -0.4166387,-0.49339 -1.238952,-0.49339 -0.8113492,0 -1.2389521,0.53725 -0.4166387,0.52628 -0.5482089,1.5898 l -2.54368915,-0.17542 q 0.0877134,-0.91003 0.36181786,-1.71041 0.28506859,-0.80039 0.80038499,-1.40342 0.5153163,-0.60303 1.2937729,-0.94292 0.7784566,-0.35085 1.8639102,-0.35085 1.0196685,0 1.8090893,0.29603 0.7894208,0.28507 1.3266655,0.84424 0.5482089,0.55918 0.8223133,1.37053 0.2850686,0.80038 0.2850686,1.83101 0,1.08546 -0.3508537,1.96259 -0.3508536,0.87713 -0.8990625,1.6227 -0.5482089,0.7346 -1.2170237,1.38149 l -1.293773,1.26088 q -0.6359223,0.61399 -1.1622028,1.23895 -0.5153163,0.62496 -0.7674924,1.33763 h 5.8877633 v 2.53272 z"
         style="font-style:normal;font-variant:normal;font-weight:bold;font-stretch:condensed;font-size:22.45463562px;font-family:'Liberation Sans Narrow';-inkscape-font-specification:'Liberation Sans Narrow Bold Condensed';text-align:center;letter-spacing:-0.75679153px;word-spacing:0px;writing-mode:lr-tb;text-anchor:middle;stroke-width:0.7017073px"
         id="path900" />
      <path
         d="m 18.663511,287.475 q 0,2.21476 -0.339889,3.73878 -0.328926,1.51306 -0.920991,2.45598 -0.581102,0.93195 -1.392451,1.34859 -0.800385,0.40568 -1.754268,0.40568 -0.953884,0 -1.754269,-0.40568 -0.800385,-0.40567 -1.381486,-1.33763 -0.570137,-0.94292 -0.899063,-2.45597 -0.3179608,-1.52402 -0.3179608,-3.74975 0,-2.33537 0.3179608,-3.85939 0.328926,-1.53499 0.910027,-2.44501 0.581102,-0.91003 1.392451,-1.27185 0.822313,-0.37278 1.809089,-0.37278 0.920991,0 1.710412,0.37278 0.800385,0.36182 1.381486,1.27185 0.581101,0.91002 0.910027,2.44501 0.328925,1.52402 0.328925,3.85939 z m -2.532725,0 q 0,-1.63367 -0.09868,-2.69719 -0.09868,-1.07449 -0.317961,-1.69945 -0.219283,-0.63592 -0.570137,-0.8881 -0.339889,-0.25217 -0.833277,-0.25217 -0.526281,0 -0.888099,0.26314 -0.361818,0.25217 -0.581101,0.8881 -0.219284,0.63592 -0.317961,1.71041 -0.08771,1.06352 -0.08771,2.67526 0,1.5898 0.09868,2.65333 0.09868,1.06352 0.306997,1.71041 0.219283,0.63592 0.570137,0.89906 0.350854,0.26314 0.86617,0.26314 0.493388,0 0.844242,-0.26314 0.350853,-0.26314 0.570137,-0.89906 0.230248,-0.64689 0.328925,-1.71041 0.109642,-1.06353 0.109642,-2.65333 z"
         style="font-style:normal;font-variant:normal;font-weight:bold;font-stretch:condensed;font-size:22.45463562px;font-family:'Liberation Sans Narrow';-inkscape-font-specification:'Liberation Sans Narrow Bold Condensed';text-align:center;letter-spacing:-0.75679153px;word-spacing:0px;writing-mode:lr-tb;text-anchor:middle;stroke-width:0.7017073px"
         id="path902" />
    </g>
  </g>
</svg>
