<?xml version="1.0" encoding="UTF-8" standalone="no"?>
<!-- Created with Inkscape (http://www.inkscape.org/) -->

<svg
   xmlns:dc="http://purl.org/dc/elements/1.1/"
   xmlns:cc="http://creativecommons.org/ns#"
   xmlns:rdf="http://www.w3.org/1999/02/22-rdf-syntax-ns#"
   xmlns:svg="http://www.w3.org/2000/svg"
   xmlns="http://www.w3.org/2000/svg"
   xmlns:sodipodi="http://sodipodi.sourceforge.net/DTD/sodipodi-0.dtd"
   xmlns:inkscape="http://www.inkscape.org/namespaces/inkscape"
   width="72"
   height="72"
   viewBox="0 0 19.05 19.050001"
   version="1.1"
   id="svg8"
   sodipodi:docname="numIcon.svg"
   inkscape:version="0.92.2 (5c3e80d, 2017-08-06)">
  <defs
     id="defs2" />
  <sodipodi:namedview
     id="base"
     pagecolor="#ffffff"
     bordercolor="#666666"
     borderopacity="1.0"
     inkscape:pageopacity="0.0"
     inkscape:pageshadow="2"
     inkscape:zoom="12.041667"
     inkscape:cx="23.888031"
     inkscape:cy="34.960949"
     inkscape:document-units="px"
     inkscape:current-layer="layer1"
     showgrid="true"
     units="px">
    <inkscape:grid
       type="xygrid"
       id="grid815" />
  </sodipodi:namedview>
  <metadata
     id="metadata5">
    <rdf:RDF>
      <cc:Work
         rdf:about="">
        <dc:format>image/svg+xml</dc:format>
        <dc:type
           rdf:resource="http://purl.org/dc/dcmitype/StillImage" />
        <dc:title></dc:title>
      </cc:Work>
    </rdf:RDF>
  </metadata>
  <g
     inkscape:label="Layer 1"
     inkscape:groupmode="layer"
     id="layer1"
     transform="translate(0,-277.94999)">
    <g
       aria-label="28"
       style="font-style:normal;font-variant:normal;font-weight:normal;font-stretch:normal;font-size:22.45463562px;line-height:125%;font-family:'Liberation Sans Narrow';-inkscape-font-specification:'Liberation Sans Narrow';text-align:center;letter-spacing:0px;word-spacing:0px;text-anchor:middle;fill:#ffffff;fill-opacity:1;stroke:none;stroke-width:0.7017073px;stroke-linecap:butt;stroke-linejoin:miter;stroke-opacity:1"
       id="text4518">
      <path
         d="m 0.30974068,295.20474 v -2.13801 q 0.42760292,-1.15124 1.05256102,-2.07223 0.6249581,-0.93196 1.3047372,-1.69945 0.679779,-0.77846 1.3485938,-1.43631 0.6688148,-0.66881 1.1950953,-1.28281 0.5372447,-0.62495 0.8661701,-1.24991 0.3398895,-0.62496 0.3398895,-1.32667 0,-1.03063 -0.427603,-1.52402 -0.4166387,-0.49339 -1.238952,-0.49339 -0.8113492,0 -1.2389521,0.53725 -0.4166387,0.52628 -0.5482089,1.5898 l -2.54368915,-0.17542 q 0.0877134,-0.91003 0.36181786,-1.71041 0.28506859,-0.80039 0.80038499,-1.40342 0.5153163,-0.60303 1.2937729,-0.94292 0.7784566,-0.35085 1.8639102,-0.35085 1.0196685,0 1.8090893,0.29603 0.7894208,0.28507 1.3266655,0.84424 0.5482089,0.55918 0.8223133,1.37053 0.2850686,0.80038 0.2850686,1.83101 0,1.08546 -0.3508537,1.96259 -0.3508536,0.87713 -0.8990625,1.6227 -0.5482089,0.7346 -1.2170237,1.38149 l -1.293773,1.26088 q -0.6359223,0.61399 -1.1622028,1.23895 -0.5153163,0.62496 -0.7674924,1.33763 h 5.8877633 v 2.53272 z"
         style="font-style:normal;font-variant:normal;font-weight:bold;font-stretch:condensed;font-size:22.45463562px;font-family:'Liberation Sans Narrow';-inkscape-font-specification:'Liberation Sans Narrow Bold Condensed';text-align:center;letter-spacing:-0.75679153px;word-spacing:0px;writing-mode:lr-tb;text-anchor:middle;stroke-width:0.7017073px"
         id="path940" />
      <path
         d="m 18.849902,290.85196 q 0,0.99774 -0.274104,1.84199 -0.263141,0.83327 -0.822314,1.44727 -0.559173,0.60303 -1.414379,0.94292 -0.844241,0.33989 -2.028372,0.33989 -1.173167,0 -2.028373,-0.33989 -0.855206,-0.33989 -1.425343,-0.94292 -0.559173,-0.614 -0.833278,-1.44727 -0.2631401,-0.83328 -0.2631401,-1.82006 0,-0.84424 0.2192836,-1.49113 0.2192835,-0.65785 0.5701375,-1.12931 0.361818,-0.47146 0.833277,-0.74556 0.47146,-0.28507 0.964848,-0.38375 v -0.0439 q -0.526281,-0.14254 -0.953884,-0.47146 -0.427603,-0.32893 -0.723635,-0.78942 -0.296033,-0.4605 -0.460496,-1.01967 -0.153498,-0.57014 -0.153498,-1.18413 0,-0.92099 0.274104,-1.67752 0.274105,-0.75653 0.800385,-1.29378 0.537245,-0.53724 1.326666,-0.82231 0.78942,-0.29603 1.820053,-0.29603 1.107382,0 1.907767,0.307 0.811349,0.29603 1.326665,0.84424 0.526281,0.53724 0.778457,1.29377 0.252176,0.75653 0.252176,1.66656 0,0.60302 -0.164463,1.17316 -0.153498,0.55918 -0.449531,1.01967 -0.296033,0.4605 -0.723636,0.77846 -0.427602,0.31796 -0.964847,0.44953 v 0.0439 q 0.559173,0.10964 1.030633,0.40567 0.482423,0.28507 0.833277,0.75653 0.350854,0.46049 0.548209,1.11834 0.197355,0.64689 0.197355,1.4692 z M 15.944395,283.802 q 0,-0.4605 -0.08771,-0.84424 -0.07675,-0.39471 -0.274105,-0.66882 -0.186391,-0.28507 -0.504352,-0.43857 -0.317961,-0.16446 -0.800385,-0.16446 -0.47146,0 -0.789421,0.16446 -0.306997,0.1535 -0.504352,0.43857 -0.186391,0.27411 -0.26314,0.66882 -0.07675,0.38374 -0.07675,0.84424 0,0.40567 0.06578,0.80038 0.06578,0.39471 0.241212,0.71267 0.186391,0.307 0.504352,0.50436 0.328925,0.19735 0.844241,0.19735 0.537245,0 0.86617,-0.19735 0.328926,-0.19736 0.493388,-0.51532 0.175427,-0.31796 0.230248,-0.71267 0.05482,-0.39471 0.05482,-0.78942 z m 0.296033,6.79779 q 0,-0.47146 -0.08771,-0.91003 -0.08771,-0.43857 -0.306997,-0.76749 -0.219283,-0.33989 -0.613993,-0.53725 -0.383747,-0.20832 -0.975812,-0.20832 -0.537245,0 -0.899063,0.20832 -0.361818,0.19736 -0.581101,0.53725 -0.219284,0.33989 -0.317961,0.78942 -0.09868,0.43857 -0.09868,0.93195 0,0.58111 0.09868,1.06353 0.09868,0.48242 0.317961,0.83328 0.230247,0.33989 0.60303,0.52628 0.383746,0.18639 0.953883,0.18639 0.570137,0 0.931955,-0.18639 0.372782,-0.19736 0.581101,-0.54821 0.219284,-0.35085 0.306997,-0.83328 0.08771,-0.49339 0.08771,-1.08545 z"
         style="font-style:normal;font-variant:normal;font-weight:bold;font-stretch:condensed;font-size:22.45463562px;font-family:'Liberation Sans Narrow';-inkscape-font-specification:'Liberation Sans Narrow Bold Condensed';text-align:center;letter-spacing:-0.75679153px;word-spacing:0px;writing-mode:lr-tb;text-anchor:middle;stroke-width:0.7017073px"
         id="path942" />
    </g>
  </g>
</svg>
