<?xml version="1.0" encoding="UTF-8" standalone="no"?>
<!-- Created with Inkscape (http://www.inkscape.org/) -->

<svg
   xmlns:dc="http://purl.org/dc/elements/1.1/"
   xmlns:cc="http://creativecommons.org/ns#"
   xmlns:rdf="http://www.w3.org/1999/02/22-rdf-syntax-ns#"
   xmlns:svg="http://www.w3.org/2000/svg"
   xmlns="http://www.w3.org/2000/svg"
   xmlns:sodipodi="http://sodipodi.sourceforge.net/DTD/sodipodi-0.dtd"
   xmlns:inkscape="http://www.inkscape.org/namespaces/inkscape"
   width="72"
   height="72"
   viewBox="0 0 19.05 19.050001"
   version="1.1"
   id="svg8"
   sodipodi:docname="numIcon.svg"
   inkscape:version="0.92.2 (5c3e80d, 2017-08-06)">
  <defs
     id="defs2" />
  <sodipodi:namedview
     id="base"
     pagecolor="#ffffff"
     bordercolor="#666666"
     borderopacity="1.0"
     inkscape:pageopacity="0.0"
     inkscape:pageshadow="2"
     inkscape:zoom="12.041667"
     inkscape:cx="23.888031"
     inkscape:cy="34.960949"
     inkscape:document-units="px"
     inkscape:current-layer="layer1"
     showgrid="true"
     units="px">
    <inkscape:grid
       type="xygrid"
       id="grid815" />
  </sodipodi:namedview>
  <metadata
     id="metadata5">
    <rdf:RDF>
      <cc:Work
         rdf:about="">
        <dc:format>image/svg+xml</dc:format>
        <dc:type
           rdf:resource="http://purl.org/dc/dcmitype/StillImage" />
        <dc:title></dc:title>
      </cc:Work>
    </rdf:RDF>
  </metadata>
  <g
     inkscape:label="Layer 1"
     inkscape:groupmode="layer"
     id="layer1"
     transform="translate(0,-277.94999)">
    <g
       aria-label="37"
       style="font-style:normal;font-variant:normal;font-weight:normal;font-stretch:normal;font-size:22.45463562px;line-height:125%;font-family:'Liberation Sans Narrow';-inkscape-font-specification:'Liberation Sans Narrow';text-align:center;letter-spacing:0px;word-spacing:0px;text-anchor:middle;fill:#ffffff;fill-opacity:1;stroke:none;stroke-width:0.7017073px;stroke-linecap:butt;stroke-linejoin:miter;stroke-opacity:1"
       id="text4518">
      <path
         d="m 9.2455454,290.91775 q 0,1.05256 -0.2850686,1.8968 -0.2741045,0.83328 -0.8442417,1.42534 -0.5701372,0.59207 -1.4143789,0.91003 -0.8332775,0.307 -1.9516236,0.307 -1.2389521,0 -2.0941579,-0.38375 -0.8442417,-0.38374 -1.3924506,-1.0087 -0.53724468,-0.63592 -0.81134911,-1.43631 -0.27410444,-0.80038 -0.35085369,-1.6227 l 2.5656176,-0.2741 q 0.054821,0.49339 0.1973551,0.91002 0.1534985,0.40568 0.4056746,0.70171 0.2521761,0.29603 0.613994,0.4605 0.3618178,0.1535 0.8552058,0.1535 0.9100267,0 1.4143789,-0.54821 0.5043522,-0.54821 0.5043522,-1.67752 0,-0.69075 -0.2412119,-1.10738 -0.2302478,-0.41664 -0.6030298,-0.63593 -0.3618179,-0.23024 -0.7894208,-0.30699 -0.4166387,-0.0768 -0.7894208,-0.0768 H 3.3468179 v -2.48887 h 0.8332775 q 0.372782,0 0.7674924,-0.0877 0.3947104,-0.0877 0.7017073,-0.31797 0.3179612,-0.23024 0.5153164,-0.63592 0.1973552,-0.41664 0.1973552,-1.05256 0,-0.95388 -0.4385671,-1.49113 -0.4276029,-0.54821 -1.2718446,-0.54821 -0.7784566,0 -1.2608804,0.52628 -0.4824238,0.52629 -0.5482089,1.49113 l -2.53272502,-0.21928 q 0.10964177,-1.08545 0.49338799,-1.88584 0.38374623,-0.80038 0.96484763,-1.32666 0.5811014,-0.52629 1.3266655,-0.77846 0.7565282,-0.26314 1.6007699,-0.26314 1.1183461,0 1.9187311,0.32892 0.8003849,0.32893 1.3157013,0.8881 0.5153163,0.55918 0.7565282,1.30474 0.2412119,0.74556 0.2412119,1.58981 0,0.67977 -0.1644626,1.27184 -0.1644627,0.5811 -0.493388,1.05256 -0.3289253,0.4605 -0.8442417,0.80039 -0.5043522,0.32892 -1.2060595,0.49338 v 0.0439 q 0.7784566,0.10964 1.3485938,0.43857 0.5811014,0.31796 0.9538835,0.80038 0.372782,0.48243 0.5482088,1.09642 0.1754269,0.60303 0.1754269,1.28281 z"
         style="font-style:normal;font-variant:normal;font-weight:bold;font-stretch:condensed;font-size:22.45463562px;font-family:'Liberation Sans Narrow';-inkscape-font-specification:'Liberation Sans Narrow Bold Condensed';text-align:center;letter-spacing:-0.75679153px;word-spacing:0px;writing-mode:lr-tb;text-anchor:middle;stroke-width:0.7017073px"
         id="path985" />
      <path
         d="m 18.60869,282.20123 q 0,0 -1.611734,3.19057 -0.756528,1.54595 -1.326665,3.11383 -0.570138,1.55691 -0.899063,3.2125 -0.317961,1.64463 -0.317961,3.48661 H 11.8109 q 0,-1.83102 0.350854,-3.47564 0.361818,-1.65559 0.975812,-3.22347 0.613994,-1.56788 1.414379,-3.10286 l 1.710411,-3.11383 H 9.9689183 v -2.53272 H 18.60869 Z"
         style="font-style:normal;font-variant:normal;font-weight:bold;font-stretch:condensed;font-size:22.45463562px;font-family:'Liberation Sans Narrow';-inkscape-font-specification:'Liberation Sans Narrow Bold Condensed';text-align:center;letter-spacing:-0.75679153px;word-spacing:0px;writing-mode:lr-tb;text-anchor:middle;stroke-width:0.7017073px"
         id="path987" />
    </g>
  </g>
</svg>
