<?xml version="1.0" encoding="UTF-8" standalone="no"?>
<!-- Created with Inkscape (http://www.inkscape.org/) -->

<svg
   xmlns:dc="http://purl.org/dc/elements/1.1/"
   xmlns:cc="http://creativecommons.org/ns#"
   xmlns:rdf="http://www.w3.org/1999/02/22-rdf-syntax-ns#"
   xmlns:svg="http://www.w3.org/2000/svg"
   xmlns="http://www.w3.org/2000/svg"
   xmlns:sodipodi="http://sodipodi.sourceforge.net/DTD/sodipodi-0.dtd"
   xmlns:inkscape="http://www.inkscape.org/namespaces/inkscape"
   width="72"
   height="72"
   viewBox="0 0 19.05 19.050001"
   version="1.1"
   id="svg8"
   sodipodi:docname="numIcon.svg"
   inkscape:version="0.92.2 (5c3e80d, 2017-08-06)">
  <defs
     id="defs2" />
  <sodipodi:namedview
     id="base"
     pagecolor="#ffffff"
     bordercolor="#666666"
     borderopacity="1.0"
     inkscape:pageopacity="0.0"
     inkscape:pageshadow="2"
     inkscape:zoom="12.041667"
     inkscape:cx="23.888031"
     inkscape:cy="35.210088"
     inkscape:document-units="px"
     inkscape:current-layer="layer1"
     showgrid="true"
     units="px">
    <inkscape:grid
       type="xygrid"
       id="grid815" />
  </sodipodi:namedview>
  <metadata
     id="metadata5">
    <rdf:RDF>
      <cc:Work
         rdf:about="">
        <dc:format>image/svg+xml</dc:format>
        <dc:type
           rdf:resource="http://purl.org/dc/dcmitype/StillImage" />
        <dc:title></dc:title>
      </cc:Work>
    </rdf:RDF>
  </metadata>
  <g
     inkscape:label="Layer 1"
     inkscape:groupmode="layer"
     id="layer1"
     transform="translate(0,-277.94999)">
    <g
       aria-label="75"
       style="font-style:normal;font-variant:normal;font-weight:normal;font-stretch:normal;font-size:22.45463562px;line-height:125%;font-family:'Liberation Sans Narrow';-inkscape-font-specification:'Liberation Sans Narrow';text-align:center;letter-spacing:0px;word-spacing:0px;text-anchor:middle;fill:#ffffff;fill-opacity:1;stroke:none;stroke-width:0.7017073px;stroke-linecap:butt;stroke-linejoin:miter;stroke-opacity:1"
       id="text4518">
      <path
         d="m 9.0151214,282.13531 q 0,0 -1.6117341,3.19058 -0.7565283,1.54594 -1.3266655,3.11382 -0.5701372,1.55692 -0.8990625,3.21251 -0.3179612,1.64462 -0.3179612,3.4866 H 2.2173313 q 0,-1.83101 0.3508537,-3.47564 0.3618179,-1.65559 0.9758118,-3.22347 0.6139939,-1.56788 1.4143789,-3.10286 l 1.7104117,-3.11383 H 0.37534949 V 279.6903 H 9.0151214 Z"
         style="font-style:normal;font-variant:normal;font-weight:bold;font-stretch:condensed;font-size:22.45463562px;font-family:'Liberation Sans Narrow';-inkscape-font-specification:'Liberation Sans Narrow Bold Condensed';text-align:center;letter-spacing:-0.75679153px;word-spacing:0px;writing-mode:lr-tb;text-anchor:middle;stroke-width:0.7017073px"
         id="path1175" />
      <path
         d="m 18.816833,289.99663 q 0,1.1622 -0.306997,2.14897 -0.296032,0.97582 -0.888098,1.69945 -0.592066,0.71267 -1.4692,1.11835 -0.877134,0.39471 -2.028373,0.39471 -1.063525,0 -1.852946,-0.307 -0.78942,-0.31796 -1.337629,-0.86617 -0.537245,-0.55917 -0.855206,-1.30474 -0.3069972,-0.74556 -0.4166389,-1.60077 l 2.5217609,-0.25217 q 0.07675,0.36182 0.197355,0.70171 0.13157,0.33988 0.361818,0.60303 0.241212,0.26314 0.581101,0.4276 0.33989,0.1535 0.833278,0.1535 0.942919,0 1.502092,-0.7346 0.559173,-0.7346 0.559173,-2.11609 0,-0.61399 -0.142534,-1.10738 -0.13157,-0.49339 -0.39471,-0.84424 -0.252177,-0.35086 -0.624959,-0.53725 -0.372782,-0.18639 -0.844241,-0.18639 -0.624958,0 -1.041597,0.29603 -0.405675,0.28507 -0.679779,0.70171 h -2.46694 l 0.438567,-8.69459 h 7.620103 v 2.29151 h -5.317626 l -0.208319,3.90325 q 0.372782,-0.40568 0.942919,-0.69074 0.581102,-0.29604 1.348594,-0.29604 0.931955,0 1.666555,0.37278 0.745564,0.37279 1.249916,1.0416 0.515317,0.66882 0.778457,1.61174 0.274104,0.93195 0.274104,2.07223 z"
         style="font-style:normal;font-variant:normal;font-weight:bold;font-stretch:condensed;font-size:22.45463562px;font-family:'Liberation Sans Narrow';-inkscape-font-specification:'Liberation Sans Narrow Bold Condensed';text-align:center;letter-spacing:-0.75679153px;word-spacing:0px;writing-mode:lr-tb;text-anchor:middle;stroke-width:0.7017073px"
         id="path1177" />
    </g>
  </g>
</svg>
