<?xml version="1.0" encoding="UTF-8" standalone="no"?>
<!-- Created with Inkscape (http://www.inkscape.org/) -->

<svg
   xmlns:dc="http://purl.org/dc/elements/1.1/"
   xmlns:cc="http://creativecommons.org/ns#"
   xmlns:rdf="http://www.w3.org/1999/02/22-rdf-syntax-ns#"
   xmlns:svg="http://www.w3.org/2000/svg"
   xmlns="http://www.w3.org/2000/svg"
   xmlns:sodipodi="http://sodipodi.sourceforge.net/DTD/sodipodi-0.dtd"
   xmlns:inkscape="http://www.inkscape.org/namespaces/inkscape"
   width="72"
   height="72"
   viewBox="0 0 19.05 19.050001"
   version="1.1"
   id="svg8"
   sodipodi:docname="numIcon.svg"
   inkscape:version="0.92.2 (5c3e80d, 2017-08-06)">
  <defs
     id="defs2" />
  <sodipodi:namedview
     id="base"
     pagecolor="#ffffff"
     bordercolor="#666666"
     borderopacity="1.0"
     inkscape:pageopacity="0.0"
     inkscape:pageshadow="2"
     inkscape:zoom="12.041667"
     inkscape:cx="23.888031"
     inkscape:cy="35.210088"
     inkscape:document-units="px"
     inkscape:current-layer="layer1"
     showgrid="true"
     units="px">
    <inkscape:grid
       type="xygrid"
       id="grid815" />
  </sodipodi:namedview>
  <metadata
     id="metadata5">
    <rdf:RDF>
      <cc:Work
         rdf:about="">
        <dc:format>image/svg+xml</dc:format>
        <dc:type
           rdf:resource="http://purl.org/dc/dcmitype/StillImage" />
        <dc:title></dc:title>
      </cc:Work>
    </rdf:RDF>
  </metadata>
  <g
     inkscape:label="Layer 1"
     inkscape:groupmode="layer"
     id="layer1"
     transform="translate(0,-277.94999)">
    <g
       aria-label="73"
       style="font-style:normal;font-variant:normal;font-weight:normal;font-stretch:normal;font-size:22.45463562px;line-height:125%;font-family:'Liberation Sans Narrow';-inkscape-font-specification:'Liberation Sans Narrow';text-align:center;letter-spacing:0px;word-spacing:0px;text-anchor:middle;fill:#ffffff;fill-opacity:1;stroke:none;stroke-width:0.7017073px;stroke-linecap:butt;stroke-linejoin:miter;stroke-opacity:1"
       id="text4518">
      <path
         d="m 9.0151214,282.13531 q 0,0 -1.6117341,3.19058 -0.7565283,1.54594 -1.3266655,3.11382 -0.5701372,1.55692 -0.8990625,3.21251 -0.3179612,1.64462 -0.3179612,3.4866 H 2.2173313 q 0,-1.83101 0.3508537,-3.47564 0.3618179,-1.65559 0.9758118,-3.22347 0.6139939,-1.56788 1.4143789,-3.10286 l 1.7104117,-3.11383 H 0.37534949 V 279.6903 H 9.0151214 Z"
         style="font-style:normal;font-variant:normal;font-weight:bold;font-stretch:condensed;font-size:22.45463562px;font-family:'Liberation Sans Narrow';-inkscape-font-specification:'Liberation Sans Narrow Bold Condensed';text-align:center;letter-spacing:-0.75679153px;word-spacing:0px;writing-mode:lr-tb;text-anchor:middle;stroke-width:0.7017073px"
         id="path1165" />
      <path
         d="m 18.663335,290.85183 q 0,1.05256 -0.285069,1.8968 -0.274104,0.83328 -0.844241,1.42535 -0.570138,0.59206 -1.414379,0.91002 -0.833278,0.307 -1.951624,0.307 -1.238952,0 -2.094158,-0.38375 -0.844242,-0.38374 -1.39245,-1.0087 -0.537245,-0.63592 -0.8113496,-1.43631 -0.2741044,-0.80038 -0.3508536,-1.6227 l 2.5656172,-0.2741 q 0.05482,0.49339 0.197356,0.91003 0.153498,0.40567 0.405674,0.7017 0.252176,0.29604 0.613994,0.4605 0.361818,0.1535 0.855206,0.1535 0.910027,0 1.414379,-0.54821 0.504352,-0.54821 0.504352,-1.67752 0,-0.69074 -0.241212,-1.10738 -0.230248,-0.41664 -0.60303,-0.63592 -0.361818,-0.23025 -0.789421,-0.307 -0.416638,-0.0768 -0.78942,-0.0768 h -0.888099 v -2.48887 h 0.833278 q 0.372782,0 0.767492,-0.0877 0.394711,-0.0877 0.701708,-0.31796 0.317961,-0.23025 0.515316,-0.63593 0.197355,-0.41663 0.197355,-1.05256 0,-0.95388 -0.438567,-1.49112 -0.427603,-0.54821 -1.271845,-0.54821 -0.778456,0 -1.26088,0.52628 -0.482424,0.52628 -0.548209,1.49113 l -2.5327249,-0.21929 q 0.1096418,-1.08545 0.4933879,-1.88584 0.383746,-0.80038 0.964848,-1.32666 0.581101,-0.52628 1.326665,-0.77846 0.756528,-0.26314 1.60077,-0.26314 1.118346,0 1.918731,0.32893 0.800385,0.32892 1.315702,0.88809 0.515316,0.55918 0.756528,1.30474 0.241212,0.74557 0.241212,1.58981 0,0.67978 -0.164463,1.27184 -0.164463,0.5811 -0.493388,1.05256 -0.328925,0.4605 -0.844242,0.80039 -0.504352,0.32892 -1.206059,0.49339 v 0.0439 q 0.778456,0.10964 1.348594,0.43857 0.581101,0.31796 0.953883,0.80038 0.372782,0.48243 0.548209,1.09642 0.175427,0.60303 0.175427,1.28281 z"
         style="font-style:normal;font-variant:normal;font-weight:bold;font-stretch:condensed;font-size:22.45463562px;font-family:'Liberation Sans Narrow';-inkscape-font-specification:'Liberation Sans Narrow Bold Condensed';text-align:center;letter-spacing:-0.75679153px;word-spacing:0px;writing-mode:lr-tb;text-anchor:middle;stroke-width:0.7017073px"
         id="path1167" />
    </g>
  </g>
</svg>
