<?xml version="1.0" encoding="UTF-8" standalone="no"?>
<!-- Created with Inkscape (http://www.inkscape.org/) -->

<svg
   xmlns:dc="http://purl.org/dc/elements/1.1/"
   xmlns:cc="http://creativecommons.org/ns#"
   xmlns:rdf="http://www.w3.org/1999/02/22-rdf-syntax-ns#"
   xmlns:svg="http://www.w3.org/2000/svg"
   xmlns="http://www.w3.org/2000/svg"
   xmlns:sodipodi="http://sodipodi.sourceforge.net/DTD/sodipodi-0.dtd"
   xmlns:inkscape="http://www.inkscape.org/namespaces/inkscape"
   width="72"
   height="72"
   viewBox="0 0 19.05 19.050001"
   version="1.1"
   id="svg8"
   sodipodi:docname="numIcon.svg"
   inkscape:version="0.92.2 (5c3e80d, 2017-08-06)">
  <defs
     id="defs2" />
  <sodipodi:namedview
     id="base"
     pagecolor="#ffffff"
     bordercolor="#666666"
     borderopacity="1.0"
     inkscape:pageopacity="0.0"
     inkscape:pageshadow="2"
     inkscape:zoom="12.041667"
     inkscape:cx="23.888031"
     inkscape:cy="35.210088"
     inkscape:document-units="px"
     inkscape:current-layer="layer1"
     showgrid="true"
     units="px">
    <inkscape:grid
       type="xygrid"
       id="grid815" />
  </sodipodi:namedview>
  <metadata
     id="metadata5">
    <rdf:RDF>
      <cc:Work
         rdf:about="">
        <dc:format>image/svg+xml</dc:format>
        <dc:type
           rdf:resource="http://purl.org/dc/dcmitype/StillImage" />
        <dc:title></dc:title>
      </cc:Work>
    </rdf:RDF>
  </metadata>
  <g
     inkscape:label="Layer 1"
     inkscape:groupmode="layer"
     id="layer1"
     transform="translate(0,-277.94999)">
    <g
       aria-label="80"
       style="font-style:normal;font-variant:normal;font-weight:normal;font-stretch:normal;font-size:22.45463562px;line-height:125%;font-family:'Liberation Sans Narrow';-inkscape-font-specification:'Liberation Sans Narrow';text-align:center;letter-spacing:0px;word-spacing:0px;text-anchor:middle;fill:#ffffff;fill-opacity:1;stroke:none;stroke-width:0.7017073px;stroke-linecap:butt;stroke-linejoin:miter;stroke-opacity:1"
       id="text4518">
      <path
         d="m 9.2563333,290.78605 q 0,0.99774 -0.2741044,1.84198 -0.2631403,0.83328 -0.8223133,1.44727 -0.5591731,0.60303 -1.414379,0.94292 -0.8442416,0.33989 -2.0283728,0.33989 -1.173167,0 -2.0283728,-0.33989 -0.8552059,-0.33989 -1.4253431,-0.94292 -0.55917308,-0.61399 -0.83327752,-1.44727 -0.26314026,-0.83328 -0.26314026,-1.82006 0,-0.84424 0.21928355,-1.49112 0.21928355,-0.65785 0.57013723,-1.12931 0.3618179,-0.47146 0.8332775,-0.74557 0.4714596,-0.28507 0.9648476,-0.38374 v -0.0439 q -0.5262805,-0.14254 -0.9538834,-0.47146 -0.427603,-0.32893 -0.7236357,-0.78942 -0.29603284,-0.4605 -0.4604955,-1.01967 -0.15349849,-0.57014 -0.15349849,-1.18413 0,-0.92099 0.27410444,-1.67752 0.27410445,-0.75653 0.80038495,-1.29377 0.5372447,-0.53725 1.3266655,-0.82232 0.7894208,-0.29603 1.8200535,-0.29603 1.1073819,0 1.9077669,0.307 0.8113491,0.29603 1.3266654,0.84424 0.5262806,0.53724 0.7784567,1.29377 0.252176,0.75653 0.252176,1.66656 0,0.60303 -0.1644626,1.17316 -0.1534985,0.55918 -0.4495313,1.01967 -0.2960328,0.4605 -0.7236357,0.77846 -0.427603,0.31796 -0.9648477,0.44953 v 0.0439 q 0.5591731,0.10964 1.0306327,0.40567 0.4824239,0.28507 0.8332775,0.75653 0.3508537,0.4605 0.5482089,1.11835 0.1973552,0.64688 0.1973552,1.4692 z m -2.905507,-7.04997 q 0,-0.4605 -0.087713,-0.84424 -0.076749,-0.39471 -0.2741044,-0.66882 -0.186391,-0.28507 -0.5043522,-0.43856 -0.3179611,-0.16447 -0.8003849,-0.16447 -0.4714597,0 -0.7894208,0.16447 -0.306997,0.15349 -0.5043522,0.43856 -0.186391,0.27411 -0.2631402,0.66882 -0.076749,0.38374 -0.076749,0.84424 0,0.40567 0.065785,0.80038 0.065785,0.39472 0.2412119,0.71268 0.186391,0.30699 0.5043522,0.50435 0.3289253,0.19735 0.8442416,0.19735 0.5372447,0 0.8661701,-0.19735 0.3289253,-0.19736 0.4933879,-0.51532 0.1754269,-0.31796 0.2302478,-0.71267 0.054821,-0.39471 0.054821,-0.78942 z m 0.2960327,6.79779 q 0,-0.47146 -0.087713,-0.91003 -0.087713,-0.43856 -0.3069969,-0.76749 -0.2192836,-0.33989 -0.613994,-0.53724 -0.3837462,-0.20832 -0.9758118,-0.20832 -0.5372447,0 -0.8990625,0.20832 -0.3618179,0.19735 -0.5811015,0.53724 -0.2192835,0.33989 -0.3179611,0.78942 -0.098678,0.43857 -0.098678,0.93196 0,0.5811 0.098678,1.06352 0.098678,0.48243 0.3179611,0.83328 0.2302478,0.33989 0.6030298,0.52628 0.3837462,0.18639 0.9538835,0.18639 0.5701372,0 0.931955,-0.18639 0.3727821,-0.19736 0.5811015,-0.54821 0.2192835,-0.35085 0.3069969,-0.83328 0.087713,-0.49338 0.087713,-1.08545 z"
         style="font-style:normal;font-variant:normal;font-weight:bold;font-stretch:condensed;font-size:22.45463562px;font-family:'Liberation Sans Narrow';-inkscape-font-specification:'Liberation Sans Narrow Bold Condensed';text-align:center;letter-spacing:-0.75679153px;word-spacing:0px;writing-mode:lr-tb;text-anchor:middle;stroke-width:0.7017073px"
         id="path1200" />
      <path
         d="m 18.575621,287.40908 q 0,2.21476 -0.339889,3.73878 -0.328925,1.51306 -0.920991,2.45598 -0.581101,0.93195 -1.392451,1.34859 -0.800385,0.40568 -1.754268,0.40568 -0.953883,0 -1.754268,-0.40568 -0.800385,-0.40567 -1.381487,-1.33763 -0.570137,-0.94292 -0.899062,-2.45597 -0.3179614,-1.52402 -0.3179614,-3.74975 0,-2.33537 0.3179614,-3.85939 0.328925,-1.53499 0.910026,-2.44501 0.581102,-0.91003 1.392451,-1.27185 0.822313,-0.37278 1.809089,-0.37278 0.920991,0 1.710412,0.37278 0.800385,0.36182 1.381486,1.27185 0.581102,0.91002 0.910027,2.44501 0.328925,1.52402 0.328925,3.85939 z m -2.532725,0 q 0,-1.63366 -0.09868,-2.69719 -0.09868,-1.07449 -0.317961,-1.69945 -0.219284,-0.63592 -0.570138,-0.88809 -0.339889,-0.25218 -0.833277,-0.25218 -0.526281,0 -0.888098,0.26314 -0.361818,0.25218 -0.581102,0.8881 -0.219283,0.63592 -0.317961,1.71041 -0.08771,1.06353 -0.08771,2.67526 0,1.58981 0.09868,2.65333 0.09868,1.06353 0.306997,1.71041 0.219284,0.63592 0.570137,0.89906 0.350854,0.26314 0.86617,0.26314 0.493388,0 0.844242,-0.26314 0.350854,-0.26314 0.570137,-0.89906 0.230248,-0.64688 0.328926,-1.71041 0.109641,-1.06352 0.109641,-2.65333 z"
         style="font-style:normal;font-variant:normal;font-weight:bold;font-stretch:condensed;font-size:22.45463562px;font-family:'Liberation Sans Narrow';-inkscape-font-specification:'Liberation Sans Narrow Bold Condensed';text-align:center;letter-spacing:-0.75679153px;word-spacing:0px;writing-mode:lr-tb;text-anchor:middle;stroke-width:0.7017073px"
         id="path1202" />
    </g>
  </g>
</svg>
