<?xml version="1.0" encoding="UTF-8" standalone="no"?>
<!-- Created with Inkscape (http://www.inkscape.org/) -->

<svg
   xmlns:dc="http://purl.org/dc/elements/1.1/"
   xmlns:cc="http://creativecommons.org/ns#"
   xmlns:rdf="http://www.w3.org/1999/02/22-rdf-syntax-ns#"
   xmlns:svg="http://www.w3.org/2000/svg"
   xmlns="http://www.w3.org/2000/svg"
   xmlns:sodipodi="http://sodipodi.sourceforge.net/DTD/sodipodi-0.dtd"
   xmlns:inkscape="http://www.inkscape.org/namespaces/inkscape"
   width="72"
   height="72"
   viewBox="0 0 19.05 19.050001"
   version="1.1"
   id="svg8"
   sodipodi:docname="numIcon.svg"
   inkscape:version="0.92.2 (5c3e80d, 2017-08-06)">
  <defs
     id="defs2" />
  <sodipodi:namedview
     id="base"
     pagecolor="#ffffff"
     bordercolor="#666666"
     borderopacity="1.0"
     inkscape:pageopacity="0.0"
     inkscape:pageshadow="2"
     inkscape:zoom="12.041667"
     inkscape:cx="23.888031"
     inkscape:cy="34.960949"
     inkscape:document-units="px"
     inkscape:current-layer="layer1"
     showgrid="true"
     units="px">
    <inkscape:grid
       type="xygrid"
       id="grid815" />
  </sodipodi:namedview>
  <metadata
     id="metadata5">
    <rdf:RDF>
      <cc:Work
         rdf:about="">
        <dc:format>image/svg+xml</dc:format>
        <dc:type
           rdf:resource="http://purl.org/dc/dcmitype/StillImage" />
        <dc:title></dc:title>
      </cc:Work>
    </rdf:RDF>
  </metadata>
  <g
     inkscape:label="Layer 1"
     inkscape:groupmode="layer"
     id="layer1"
     transform="translate(0,-277.94999)">
    <g
       aria-label="98"
       style="font-style:normal;font-variant:normal;font-weight:normal;font-stretch:normal;font-size:22.45463562px;line-height:125%;font-family:'Liberation Sans Narrow';-inkscape-font-specification:'Liberation Sans Narrow';text-align:center;letter-spacing:0px;word-spacing:0px;text-anchor:middle;fill:#ffffff;fill-opacity:1;stroke:none;stroke-width:0.7017073px;stroke-linecap:butt;stroke-linejoin:miter;stroke-opacity:1"
       id="text4518">
      <path
         d="m 9.2071707,287.23379 q 0,4.11156 -1.2389521,6.1509 -1.2279879,2.03934 -3.4975726,2.03934 -0.8223133,0 -1.4691998,-0.20832 -0.6468865,-0.20832 -1.1402745,-0.64689 -0.4824238,-0.43857 -0.8223133,-1.12931 -0.32892531,-0.69074 -0.5262805,-1.64463 l 2.3682623,-0.40567 q 0.1754269,0.82231 0.5811015,1.21702 0.4166387,0.39471 1.0415968,0.39471 0.5153164,0 0.9100268,-0.29603 0.4056745,-0.29603 0.6907431,-0.89906 0.2960328,-0.60303 0.4495313,-1.52402 0.1644627,-0.93196 0.1644627,-2.19284 -0.1754268,0.4276 -0.4714596,0.75653 -0.2960328,0.32892 -0.6688149,0.54821 -0.372782,0.21928 -0.8003849,0.33989 -0.4166388,0.10964 -0.8552059,0.10964 -0.8223133,0 -1.5020923,-0.35085 -0.6688148,-0.36182 -1.1512387,-1.03064 -0.47145958,-0.66881 -0.73459985,-1.61173 -0.25217608,-0.95388 -0.25217608,-2.14898 0,-1.22799 0.29603279,-2.19284 0.30699698,-0.96484 0.86617004,-1.62269 0.5701372,-0.66882 1.3924505,-1.00871 0.8332775,-0.35085 1.8748744,-0.35085 1.0964178,0 1.9296952,0.46049 0.8442417,0.44954 1.4034148,1.40342 0.5701372,0.94292 0.86617,2.40115 0.2960328,1.44728 0.2960328,3.44276 z m -2.6752593,-2.15995 q 0,-0.65785 -0.120606,-1.22799 -0.1206059,-0.5811 -0.3618178,-0.99774 -0.2412119,-0.4276 -0.5920656,-0.66881 -0.3508537,-0.24121 -0.8113492,-0.24121 -0.4276029,0 -0.7565282,0.19735 -0.3289253,0.18639 -0.5701372,0.54821 -0.2302478,0.36182 -0.3508537,0.87714 -0.120606,0.51531 -0.120606,1.1622 0,0.60303 0.1096418,1.12931 0.1206059,0.51532 0.3398895,0.89906 0.2302477,0.37278 0.5701372,0.59207 0.3508537,0.20832 0.7894208,0.20832 0.3508537,0 0.679779,-0.1535 0.3398895,-0.1535 0.6030298,-0.4605 0.2741044,-0.30699 0.4276029,-0.76749 0.1644627,-0.47146 0.1644627,-1.09642 z"
         style="font-style:normal;font-variant:normal;font-weight:bold;font-stretch:condensed;font-size:22.45463562px;font-family:'Liberation Sans Narrow';-inkscape-font-specification:'Liberation Sans Narrow Bold Condensed';text-align:center;letter-spacing:-0.75679153px;word-spacing:0px;writing-mode:lr-tb;text-anchor:middle;stroke-width:0.7017073px"
         id="path1290" />
      <path
         d="m 18.822492,290.85196 q 0,0.99774 -0.274105,1.84199 -0.26314,0.83327 -0.822313,1.44727 -0.559173,0.60303 -1.414379,0.94292 -0.844242,0.33989 -2.028373,0.33989 -1.173167,0 -2.028373,-0.33989 -0.855206,-0.33989 -1.425343,-0.94292 -0.559173,-0.614 -0.8332773,-1.44727 -0.2631403,-0.83328 -0.2631403,-1.82006 0,-0.84424 0.2192836,-1.49113 0.219284,-0.65785 0.570137,-1.12931 0.361818,-0.47146 0.833278,-0.74556 0.471459,-0.28507 0.964847,-0.38375 v -0.0439 q -0.52628,-0.14254 -0.953883,-0.47146 -0.427603,-0.32893 -0.723636,-0.78942 -0.296033,-0.4605 -0.460495,-1.01967 -0.153499,-0.57014 -0.153499,-1.18413 0,-0.92099 0.274105,-1.67752 0.274104,-0.75653 0.800385,-1.29378 0.537244,-0.53724 1.326665,-0.82231 0.789421,-0.29603 1.820054,-0.29603 1.107381,0 1.907766,0.307 0.81135,0.29603 1.326666,0.84424 0.52628,0.53724 0.778457,1.29377 0.252176,0.75653 0.252176,1.66656 0,0.60302 -0.164463,1.17316 -0.153499,0.55918 -0.449531,1.01967 -0.296033,0.4605 -0.723636,0.77846 -0.427603,0.31796 -0.964848,0.44953 v 0.0439 q 0.559173,0.10964 1.030633,0.40567 0.482424,0.28507 0.833278,0.75653 0.350853,0.46049 0.548208,1.11834 0.197356,0.64689 0.197356,1.4692 z M 15.916985,283.802 q 0,-0.4605 -0.08771,-0.84424 -0.07675,-0.39471 -0.274104,-0.66882 -0.186391,-0.28507 -0.504352,-0.43857 -0.317962,-0.16446 -0.800385,-0.16446 -0.47146,0 -0.789421,0.16446 -0.306997,0.1535 -0.504352,0.43857 -0.186391,0.27411 -0.263141,0.66882 -0.07675,0.38374 -0.07675,0.84424 0,0.40567 0.06578,0.80038 0.06578,0.39471 0.241212,0.71267 0.186391,0.307 0.504352,0.50436 0.328926,0.19735 0.844242,0.19735 0.537245,0 0.86617,-0.19735 0.328925,-0.19736 0.493388,-0.51532 0.175427,-0.31796 0.230248,-0.71267 0.05482,-0.39471 0.05482,-0.78942 z m 0.296032,6.79779 q 0,-0.47146 -0.08771,-0.91003 -0.08771,-0.43857 -0.306997,-0.76749 -0.219284,-0.33989 -0.613994,-0.53725 -0.383746,-0.20832 -0.975812,-0.20832 -0.537244,0 -0.899062,0.20832 -0.361818,0.19736 -0.581102,0.53725 -0.219283,0.33989 -0.317961,0.78942 -0.09868,0.43857 -0.09868,0.93195 0,0.58111 0.09868,1.06353 0.09868,0.48242 0.317961,0.83328 0.230248,0.33989 0.60303,0.52628 0.383746,0.18639 0.953883,0.18639 0.570138,0 0.931956,-0.18639 0.372782,-0.19736 0.581101,-0.54821 0.219284,-0.35085 0.306997,-0.83328 0.08771,-0.49339 0.08771,-1.08545 z"
         style="font-style:normal;font-variant:normal;font-weight:bold;font-stretch:condensed;font-size:22.45463562px;font-family:'Liberation Sans Narrow';-inkscape-font-specification:'Liberation Sans Narrow Bold Condensed';text-align:center;letter-spacing:-0.75679153px;word-spacing:0px;writing-mode:lr-tb;text-anchor:middle;stroke-width:0.7017073px"
         id="path1292" />
    </g>
  </g>
</svg>
