<?xml version="1.0" encoding="UTF-8" standalone="no"?>
<!-- Created with Inkscape (http://www.inkscape.org/) -->

<svg
   xmlns:dc="http://purl.org/dc/elements/1.1/"
   xmlns:cc="http://creativecommons.org/ns#"
   xmlns:rdf="http://www.w3.org/1999/02/22-rdf-syntax-ns#"
   xmlns:svg="http://www.w3.org/2000/svg"
   xmlns="http://www.w3.org/2000/svg"
   xmlns:sodipodi="http://sodipodi.sourceforge.net/DTD/sodipodi-0.dtd"
   xmlns:inkscape="http://www.inkscape.org/namespaces/inkscape"
   width="72"
   height="72"
   viewBox="0 0 19.05 19.050001"
   version="1.1"
   id="svg8"
   sodipodi:docname="numIcon.svg"
   inkscape:version="0.92.2 (5c3e80d, 2017-08-06)">
  <defs
     id="defs2" />
  <sodipodi:namedview
     id="base"
     pagecolor="#ffffff"
     bordercolor="#666666"
     borderopacity="1.0"
     inkscape:pageopacity="0.0"
     inkscape:pageshadow="2"
     inkscape:zoom="12.041667"
     inkscape:cx="37.756543"
     inkscape:cy="31.625674"
     inkscape:document-units="px"
     inkscape:current-layer="layer1"
     showgrid="true"
     units="px">
    <inkscape:grid
       type="xygrid"
       id="grid815" />
  </sodipodi:namedview>
  <metadata
     id="metadata5">
    <rdf:RDF>
      <cc:Work
         rdf:about="">
        <dc:format>image/svg+xml</dc:format>
        <dc:type
           rdf:resource="http://purl.org/dc/dcmitype/StillImage" />
        <dc:title></dc:title>
      </cc:Work>
    </rdf:RDF>
  </metadata>
  <g
     inkscape:label="Layer 1"
     inkscape:groupmode="layer"
     id="layer1"
     transform="translate(0,-277.94999)">
    <g
       aria-label="100"
       style="font-style:normal;font-variant:normal;font-weight:normal;font-stretch:normal;font-size:15.59067535px;line-height:125%;font-family:'Liberation Sans Narrow';-inkscape-font-specification:'Liberation Sans Narrow';text-align:center;letter-spacing:0px;word-spacing:0px;text-anchor:middle;fill:#ffffff;fill-opacity:1;stroke:none;stroke-width:0.48720855px;stroke-linecap:butt;stroke-linejoin:miter;stroke-opacity:1"
       id="text4518">
      <path
         d="m 0.03603401,292.84189 v -1.59104 H 2.2132475 v -7.31574 l -2.10869978,1.60626 v -1.68239 l 2.20005138,-1.74329 h 1.6595543 v 9.13516 h 2.0173481 v 1.59104 z"
         style="font-style:normal;font-variant:normal;font-weight:bold;font-stretch:condensed;font-size:15.59067535px;font-family:'Liberation Sans Narrow';-inkscape-font-specification:'Liberation Sans Narrow Bold Condensed';text-align:center;letter-spacing:-0.52545458px;word-spacing:0px;writing-mode:lr-tb;text-anchor:middle;stroke-width:0.48720855px"
         id="path4552" />
      <path
         d="m 12.413995,287.47498 q 0,1.53775 -0.235992,2.59591 -0.228379,1.05054 -0.639461,1.70523 -0.40347,0.64707 -0.966805,0.93635 -0.555722,0.28167 -1.2180212,0.28167 -0.6622992,0 -1.2180215,-0.28167 -0.5557223,-0.28166 -0.9591919,-0.92874 -0.395857,-0.65468 -0.6242361,-1.70523 -0.2207664,-1.05815 -0.2207664,-2.60352 0,-1.62149 0.2207664,-2.67965 0.2283791,-1.06577 0.6318487,-1.69761 0.4034696,-0.63185 0.9668046,-0.88307 0.5709475,-0.25883 1.2560846,-0.25883 0.6394618,0 1.1875708,0.25883 0.555723,0.25122 0.959192,0.88307 0.40347,0.63184 0.631849,1.69761 0.228379,1.05816 0.228379,2.67965 z m -1.758519,0 q 0,-1.13428 -0.06851,-1.87271 -0.06851,-0.74604 -0.220767,-1.17996 -0.152253,-0.44153 -0.3958568,-0.61662 -0.2359917,-0.17509 -0.5785602,-0.17509 -0.3654065,0 -0.6166234,0.1827 -0.251217,0.17509 -0.4034696,0.61663 -0.1522527,0.44153 -0.2207664,1.18757 -0.060901,0.73842 -0.060901,1.85748 0,1.10383 0.068514,1.84226 0.068514,0.73842 0.2131538,1.18757 0.1522526,0.44153 0.395857,0.62424 0.2436043,0.1827 0.6013981,0.1827 0.3425685,0 0.5861728,-0.1827 0.2436041,-0.18271 0.3958571,-0.62424 0.159865,-0.44915 0.228379,-1.18757 0.07613,-0.73843 0.07613,-1.84226 z"
         style="font-style:normal;font-variant:normal;font-weight:bold;font-stretch:condensed;font-size:15.59067535px;font-family:'Liberation Sans Narrow';-inkscape-font-specification:'Liberation Sans Narrow Bold Condensed';text-align:center;letter-spacing:-0.52545458px;word-spacing:0px;writing-mode:lr-tb;text-anchor:middle;stroke-width:0.48720855px"
         id="path4554" />
      <path
         d="m 19.013966,287.47498 q 0,1.53775 -0.235992,2.59591 -0.228379,1.05054 -0.639461,1.70523 -0.403469,0.64707 -0.966804,0.93635 -0.555723,0.28167 -1.218022,0.28167 -0.662299,0 -1.218021,-0.28167 -0.555723,-0.28166 -0.959192,-0.92874 -0.395857,-0.65468 -0.624236,-1.70523 -0.220767,-1.05815 -0.220767,-2.60352 0,-1.62149 0.220767,-2.67965 0.228379,-1.06577 0.631848,-1.69761 0.40347,-0.63185 0.966805,-0.88307 0.570947,-0.25883 1.256085,-0.25883 0.639461,0 1.187571,0.25883 0.555722,0.25122 0.959191,0.88307 0.40347,0.63184 0.631849,1.69761 0.228379,1.05816 0.228379,2.67965 z m -1.758518,0 q 0,-1.13428 -0.06851,-1.87271 -0.06851,-0.74604 -0.220767,-1.17996 -0.152252,-0.44153 -0.395857,-0.61662 -0.235991,-0.17509 -0.57856,-0.17509 -0.365406,0 -0.616623,0.1827 -0.251217,0.17509 -0.40347,0.61663 -0.152252,0.44153 -0.220766,1.18757 -0.0609,0.73842 -0.0609,1.85748 0,1.10383 0.06851,1.84226 0.06851,0.73842 0.213154,1.18757 0.152253,0.44153 0.395857,0.62424 0.243605,0.1827 0.601398,0.1827 0.342569,0 0.586173,-0.1827 0.243605,-0.18271 0.395857,-0.62424 0.159866,-0.44915 0.228379,-1.18757 0.07613,-0.73843 0.07613,-1.84226 z"
         style="font-style:normal;font-variant:normal;font-weight:bold;font-stretch:condensed;font-size:15.59067535px;font-family:'Liberation Sans Narrow';-inkscape-font-specification:'Liberation Sans Narrow Bold Condensed';text-align:center;letter-spacing:-0.52545458px;word-spacing:0px;writing-mode:lr-tb;text-anchor:middle;stroke-width:0.48720855px"
         id="path4556" />
    </g>
  </g>
</svg>
